<?xml version="1.0" standalone="no"?>
<!DOCTYPE svg PUBLIC "-//W3C//DTD SVG 20010904//EN"
 "http://www.w3.org/TR/2001/REC-SVG-20010904/DTD/svg10.dtd">
<svg version="1.0" xmlns="http://www.w3.org/2000/svg"
 width="611.000000pt" height="611.000000pt" viewBox="0 0 611.000000 611.000000"
 preserveAspectRatio="xMidYMid meet">
<metadata>
Created by potrace 1.11, written by Peter Selinger 2001-2013
</metadata>
<g transform="translate(0.000000,611.000000) scale(0.100000,-0.100000)"
fill="#000000" stroke="none">
<path d="M3702 4464 l3 -49 43 -3 c50 -4 49 32 14 -312 l-27 -265 -50 -5 -50
-5 -3 -42 c-3 -39 -1 -43 20 -44 13 0 76 -6 140 -13 130 -13 128 -14 128 50 0
33 -1 34 -40 34 -22 0 -40 2 -40 5 0 12 60 604 65 637 l5 36 -48 6 c-26 3 -73
8 -105 12 l-58 6 3 -48z"/>
<path d="M2153 4356 c-38 -49 -40 -56 -33 -95 7 -37 5 -41 -14 -41 -38 0 -47
-13 -40 -59 6 -40 8 -41 42 -39 l35 3 14 -75 c32 -180 54 -282 66 -300 6 -11
27 -27 45 -36 27 -13 42 -13 87 -4 30 6 57 16 61 21 3 6 3 30 -1 55 -5 39 -8
43 -25 34 -33 -18 -70 -12 -80 13 -10 23 -63 308 -58 312 2 2 23 7 48 12 40 8
45 12 43 34 -7 64 -9 67 -55 58 -24 -4 -46 -8 -49 -9 -3 0 -12 35 -19 78 -7
42 -16 80 -19 84 -3 4 -25 -17 -48 -46z"/>
<path d="M2695 4301 c-89 -25 -156 -79 -191 -156 -33 -69 -33 -171 0 -240 64
-138 240 -198 400 -135 57 22 156 103 156 127 0 6 -21 18 -46 27 l-46 15 -25
-30 c-62 -73 -187 -95 -263 -45 -38 25 -88 101 -75 114 4 4 104 16 223 27 249
23 240 17 201 119 -25 67 -77 124 -144 155 -51 24 -144 34 -190 22z m144 -95
c34 -18 91 -81 91 -101 0 -8 -8 -15 -17 -15 -10 0 -83 -7 -163 -15 -80 -8
-148 -15 -151 -15 -13 0 9 68 29 98 12 16 36 36 54 45 41 21 120 22 157 3z"/>
<path d="M3160 4255 l0 -45 49 0 c28 0 52 -4 55 -9 3 -4 3 -83 -1 -175 l-6
-166 -54 0 -53 0 0 -50 0 -50 170 0 170 0 0 45 0 45 -61 0 -62 0 5 118 c8 180
31 212 166 227 l62 7 0 49 0 49 -57 0 c-72 0 -130 -27 -163 -77 l-25 -37 -3
57 -3 57 -94 0 -95 0 0 -45z"/>
<path d="M4210 4198 c-43 -7 -120 -52 -127 -73 -2 -6 16 -20 39 -32 42 -20 43
-20 68 -1 40 30 90 33 144 10 55 -25 69 -54 60 -123 -4 -27 -9 -49 -11 -49 -3
0 -17 8 -31 18 -98 67 -225 61 -291 -13 -36 -42 -45 -71 -39 -130 10 -88 85
-147 189 -148 38 0 70 7 97 20 l41 20 3 -31 c3 -31 4 -31 86 -45 45 -8 85 -12
88 -8 3 3 8 23 11 45 l5 40 -41 7 c-26 4 -41 12 -41 21 0 8 12 81 26 163 33
198 24 236 -74 285 -42 22 -145 34 -202 24z m86 -308 c58 -29 75 -50 68 -87
-11 -55 -122 -89 -189 -58 -61 30 -72 89 -26 136 36 36 85 39 147 9z"/>
<path d="M1012 4180 c-12 -5 -27 -22 -33 -37 -8 -22 -6 -32 9 -52 10 -15 29
-27 41 -29 34 -5 71 24 71 56 0 33 -8 45 -37 61 -25 13 -21 13 -51 1z"/>
<path d="M1680 4140 c-19 -10 -53 -36 -75 -59 -45 -46 -55 -50 -55 -21 0 11
-6 23 -13 25 -12 5 -175 -39 -185 -50 -3 -3 0 -23 7 -46 11 -35 15 -40 34 -35
12 4 34 9 48 12 27 6 21 22 110 -268 l17 -57 -37 -12 c-50 -16 -52 -19 -40
-62 6 -24 16 -37 27 -37 9 0 73 18 142 39 135 42 135 41 110 107 -9 22 -11 22
-54 9 l-45 -14 -35 112 c-55 177 -55 162 -6 212 76 78 139 85 166 19 8 -20 38
-109 66 -197 27 -89 52 -164 53 -166 4 -4 176 46 183 54 3 3 0 23 -7 46 -11
38 -14 40 -39 34 -55 -16 -64 -12 -78 30 -84 264 -90 280 -120 312 -28 30 -37
33 -85 33 -33 -1 -68 -8 -89 -20z"/>
<path d="M4721 4049 c-17 -50 -14 -57 29 -69 22 -6 40 -16 40 -21 0 -6 -23
-82 -50 -169 l-51 -159 -41 15 c-51 18 -47 18 -57 -8 -26 -70 -32 -63 93 -102
176 -56 170 -55 185 -6 7 23 11 43 9 44 -2 1 -22 8 -45 14 -40 12 -41 14 -33
40 5 15 25 77 45 138 l35 112 45 11 c105 26 165 6 165 -56 0 -20 -25 -115 -56
-211 -30 -95 -54 -175 -52 -176 4 -4 175 -56 181 -56 3 0 12 20 20 44 l15 44
-44 12 c-39 11 -44 16 -38 34 103 323 107 345 72 396 -41 62 -162 85 -255 49
-23 -8 -24 -7 -18 24 l7 33 -90 27 c-49 15 -91 27 -94 27 -4 0 -11 -14 -17
-31z"/>
<path d="M535 3989 c-55 -39 -107 -74 -115 -79 -15 -9 -8 -29 25 -74 13 -18
15 -18 43 2 15 12 33 22 39 24 10 3 133 -158 133 -172 -1 -4 -254 -180 -271
-188 -4 -2 -35 37 -69 85 l-63 87 36 31 36 30 -28 37 -28 37 -59 -41 c-32 -23
-87 -61 -121 -85 l-63 -44 26 -39 c15 -23 31 -37 38 -33 6 3 23 15 38 25 l27
19 159 -223 c87 -123 162 -229 166 -236 6 -9 -3 -23 -24 -41 l-33 -27 24 -37
c13 -20 29 -35 35 -33 11 4 212 142 228 157 10 9 -33 79 -49 79 -5 0 -21 -9
-35 -20 -38 -30 -23 -43 -153 136 l-37 52 133 91 c72 50 136 92 141 93 9 3
155 -189 156 -204 0 -3 -16 -16 -35 -28 -19 -12 -35 -25 -35 -28 0 -4 13 -22
29 -41 l28 -34 121 84 c128 89 126 85 84 138 l-19 24 -32 -22 c-17 -13 -35
-21 -40 -19 -5 2 -84 107 -175 235 l-165 232 35 21 c19 12 34 24 34 28 0 12
-45 72 -55 72 -5 -1 -55 -32 -110 -71z"/>
<path d="M1070 3939 c-41 -17 -77 -32 -79 -35 -4 -4 19 -65 29 -77 4 -5 24 -1
44 7 35 15 37 15 45 -7 5 -12 34 -82 65 -154 31 -73 56 -137 56 -142 0 -5 -16
-15 -35 -21 -19 -6 -35 -13 -35 -16 0 -9 33 -84 37 -84 2 0 60 23 128 51 l124
51 -15 36 c-20 48 -19 48 -57 34 -19 -7 -36 -12 -39 -12 -3 0 -43 90 -88 200
-46 110 -89 200 -95 199 -5 0 -44 -14 -85 -30z"/>
<path d="M5860 3820 l-20 -39 45 -26 44 -27 -45 -90 -46 -91 -29 51 c-48 85
-128 132 -222 132 -116 0 -204 -57 -258 -166 -45 -91 -46 -166 -4 -243 54 -98
153 -149 266 -138 l59 7 -16 -31 c-8 -17 -14 -32 -12 -34 8 -7 169 -85 176
-85 7 0 42 62 42 75 0 3 -18 14 -40 25 l-40 20 49 98 c27 53 96 188 155 300
58 111 106 205 106 207 0 5 -175 95 -185 95 -2 0 -14 -18 -25 -40z m-194 -209
c84 -38 123 -130 90 -215 -49 -129 -188 -172 -286 -90 -63 54 -77 128 -39 210
45 95 145 136 235 95z"/>
<path d="M3485 3575 c-146 -7 -328 -9 -540 -4 -176 5 -359 8 -406 8 l-86 1
-109 -119 c-60 -66 -114 -120 -120 -120 -6 -1 -19 8 -29 19 -10 12 -25 18 -33
15 -8 -3 -36 14 -64 37 l-51 42 -111 -56 c-105 -54 -116 -58 -201 -63 -49 -3
-118 -8 -152 -11 -51 -4 -63 -2 -63 10 0 22 -40 46 -76 46 -33 0 -74 -37 -74
-66 0 -41 44 -84 86 -84 8 0 31 15 50 34 l34 33 147 7 148 7 103 56 103 55 44
-37 c25 -20 42 -41 39 -47 -3 -5 5 -22 20 -37 l25 -27 -101 -109 c-100 -107
-112 -117 -522 -394 l-419 -283 -18 23 c-10 13 -19 27 -19 31 0 3 -8 4 -18 2
-30 -8 -52 44 -52 126 0 70 -1 74 -50 144 -47 67 -49 75 -39 104 31 89 -98
144 -139 59 -11 -23 -11 -34 -2 -58 15 -35 37 -49 78 -49 26 0 37 -10 76 -67
45 -66 46 -70 46 -142 0 -64 4 -79 25 -107 15 -20 21 -35 15 -39 -7 -4 -3 -19
10 -39 l20 -33 -36 -24 c-29 -20 -57 -66 -162 -271 l-127 -246 -170 -149 -169
-148 1353 -3 c744 -1 1958 -1 2698 0 l1345 3 -504 421 -503 421 -42 127 -41
126 39 11 c21 7 39 18 39 25 0 7 16 18 37 25 31 10 46 9 107 -11 l72 -22 82
25 82 25 40 -21 c37 -20 42 -21 67 -7 39 22 54 55 41 91 -12 34 -35 49 -76 49
-31 0 -55 -20 -70 -61 -9 -21 -24 -30 -90 -48 l-80 -23 -67 22 c-59 20 -73 21
-107 10 -27 -7 -44 -8 -50 -2 -7 7 -23 6 -49 -3 -21 -8 -40 -11 -42 -7 -3 4
-18 50 -36 102 -29 90 -34 98 -82 134 l-50 37 25 33 c15 20 21 37 16 42 -6 6
-1 22 13 41 19 28 39 37 162 73 l140 42 147 -57 c135 -53 147 -60 153 -86 13
-57 74 -76 120 -36 35 29 38 83 5 109 -27 22 -83 24 -100 3 -7 -8 -18 -15 -25
-15 -7 0 -78 25 -156 56 l-144 56 -148 -44 c-140 -41 -149 -45 -174 -80 -14
-21 -30 -35 -36 -31 -5 3 -22 -8 -36 -25 l-26 -32 -319 245 -318 245 -52 -2
c-28 0 -150 -6 -271 -13z m-1992 -252 c9 -20 7 -27 -10 -45 -28 -28 -70 -18
-79 19 -14 55 65 79 89 26z m3789 -148 c10 -22 9 -29 -9 -47 -28 -27 -70 -18
-79 17 -8 33 11 55 47 55 22 0 32 -7 41 -25z m-4381 -206 c18 -34 -3 -69 -41
-69 -22 0 -33 6 -41 24 -16 35 3 66 41 66 20 0 33 -7 41 -21z m4379 -130 c14
-26 -11 -69 -40 -69 -39 0 -65 51 -38 78 20 20 66 15 78 -9z m-310 -936 l0
-83 -35 0 -35 0 0 83 0 83 35 0 35 0 0 -83z"/>
</g>
</svg>
