<svg width="664.05" height="294.7" style="isolation:isolate" xmlns="http://www.w3.org/2000/svg"><path d="M59.42 293.66l37-32.4 2.3-2 25-49 97.9-66.2 49-52.7 80.3 1.8 55.5-2.7 80.4 61.7 17.5 52.7 104.5 87.4-549.4 1.4z" fill="#00a938" fill-rule="evenodd"/><g fill="#757778" fill-rule="evenodd"><path d="M72.78 176.94l8.43 52.92 22.48 11.3-1.65 3.28-24.16-12.13-8.57-53.8-57.35-69.19 2.83-2.34 57.99 69.96zM546.06 132.38l-1.34 3.43-32.16-12.6-27.42 8.2-5.89 8-2.96-2.19 6.61-8.98 29.82-8.91 33.34 13.05z"/><path d="M476.35 146.48l5.53-7.5-6.03-4.3-5.53 7.5 6.03 4.3z"/></g><path d="M476.35 146.48l5.53-7.5-6.03-4.3-5.53 7.5 6.03 4.3z" fill="none" stroke="#757778" stroke-linecap="square" stroke-miterlimit="1.5" stroke-width="1.21" vector-effect="non-scaling-stroke"/><g fill="#757778" fill-rule="evenodd"><path d="M550.1 127.2H550.4l.1.01h.1l.09.02h.1l.1.01.1.02h.1l.1.02.09.01.2.04.1.01.09.02.1.02.1.03.1.02.09.02.1.03.1.02.18.06.1.03.1.03.1.03.09.04.1.03.09.04.09.03.19.08.1.04.08.04.1.05.09.04.09.05.1.04.08.05.1.05.08.05.1.05.08.06.09.05.18.11.08.06.09.06.17.12.08.06.09.07.08.06.08.07.08.06.08.07.08.07.07.06.08.07.08.07.07.08.07.07.08.07.07.07.07.08.13.15.07.07.06.08.07.08.06.08.07.07.06.08.06.08.06.08.05.09.06.08.06.08.05.08.06.09.05.08.05.09.05.08.1.17.04.1.05.08.04.09.05.08.08.18.04.1.04.08.04.1.04.08.03.1.04.09.03.09.03.09.03.1.03.09.03.09.03.1.03.09.05.19.02.09.02.1.02.09.02.1.02.1.02.09.02.1.01.09.01.1.02.1v.09l.02.1v.1l.02.09v.1l.01.2v.19l.01.1v.39l-.01.1v.1l-.02.09v.1l-.02.1v.1l-.02.09-.01.1-.02.1-.01.1-.02.09-.02.1-.02.1-.02.09-.02.1-.02.1-.03.09-.02.1-.03.1-.03.09-.03.1-.03.09-.03.1-.03.09-.04.1-.03.09-.04.09-.04.1-.04.09-.04.09-.04.1-.04.08-.05.1-.04.09-.05.09-.05.09-.05.09-.05.09-.05.09-.05.09-.06.08-.05.09-.06.09-.06.08-.06.09-.06.09-.06.08-.06.08-.06.09-.07.08-.06.08-.07.08-.07.08-.06.08-.07.07-.07.08-.07.08-.08.07-.07.07-.07.07-.07.07-.15.14-.08.07-.15.13-.08.07-.16.12-.08.06-.08.06-.08.06-.08.06-.09.06-.08.05-.08.06-.09.05-.08.05-.09.05-.08.06-.09.04-.09.05-.08.05-.09.05-.09.04-.09.04-.09.05-.09.04-.09.04-.18.08-.09.03-.09.04-.1.03-.09.04-.09.03-.09.03-.1.03-.09.03-.1.03-.09.03-.09.02-.1.03-.09.02-.1.02-.1.03-.09.02-.1.01-.09.02-.1.02-.1.02-.09.01-.2.03h-.09l-.1.02h-.1l-.1.01-.1.01h-.09l-.2.01h-.69l-.1-.01h-.09l-.1-.02h-.1l-.1-.02-.1-.01-.09-.01-.1-.02-.2-.03-.1-.02-.09-.02-.1-.02-.1-.02-.1-.02-.09-.02-.1-.03-.1-.02-.09-.03-.1-.03-.09-.03-.1-.03-.1-.03-.18-.07-.1-.04-.09-.03-.19-.08-.09-.04-.1-.05-.09-.04-.18-.09-.1-.05-.08-.04-.18-.1-.1-.06-.08-.05-.09-.05-.17-.11-.1-.06-.08-.06-.08-.06-.09-.06-.08-.07-.09-.06-.08-.06-.08-.07-.16-.13-.08-.07-.07-.07-.08-.07-.08-.07-.07-.07-.07-.07-.07-.07-.08-.07-.07-.08-.06-.07-.07-.08-.07-.07-.06-.08-.13-.16-.06-.08-.07-.08-.06-.08-.06-.08-.05-.08-.06-.08-.06-.08-.05-.09-.05-.08-.06-.08-.05-.09-.05-.08-.05-.1-.05-.08-.04-.08-.05-.1-.04-.08-.05-.09-.04-.09-.04-.08-.08-.18-.04-.1-.04-.09-.03-.09-.04-.09-.03-.1-.03-.08-.03-.1-.03-.09-.03-.1-.03-.09-.03-.09-.02-.1-.03-.09-.02-.1-.02-.09-.02-.1-.02-.09-.02-.1-.02-.09-.01-.1-.02-.1-.01-.09-.02-.1v-.1l-.02-.09v-.1l-.02-.1v-.1-.09l-.01-.1v-.1-.09l-.01-.1v-.2-.19l.01-.1.01-.1v-.1l.02-.09v-.1l.02-.1v-.1l.02-.1.02-.09.01-.1.02-.1.02-.09.02-.1.02-.1.02-.09.02-.1.03-.1.02-.09.03-.1.03-.09.03-.1.03-.1.03-.09.03-.1.04-.09.03-.09.04-.1.04-.09.04-.09.04-.1.04-.09.04-.09.05-.09.04-.09.05-.09.05-.1.05-.08.05-.1.05-.08.05-.09.06-.09.05-.08.06-.1.06-.08.06-.08.12-.17.06-.09.06-.08.07-.08.06-.08.07-.08.07-.08.07-.08.06-.08.07-.07.07-.08.08-.07.07-.07.07-.08.07-.07.15-.14.08-.06.08-.07.07-.07.08-.06.08-.06.08-.07.08-.06.08-.06.08-.06.08-.05.09-.06.08-.06.08-.05.09-.05.17-.1.08-.06.09-.05.09-.05.08-.04.1-.05.08-.04.09-.05.09-.04.09-.04.18-.08.09-.04.09-.04.1-.03.08-.04.1-.03.09-.03.1-.04.08-.03.1-.02.1-.03.09-.03.1-.03.09-.02.1-.02.09-.03.1-.02.09-.02.1-.02.09-.02.1-.01.1-.02.09-.01.2-.03.1-.01.09-.01h.1l.1-.02h.1l.19-.01h.2l.1-.01h.09zm-.14 3.7h-.05l-.06.01h-.11l-.05.01-.11.01h-.05l-.06.01h-.05l-.06.02h-.05l-.05.01-.06.01-.05.01-.05.01-.06.01-.05.02-.1.02-.06.02-.05.01-.05.01-.1.04-.06.01-.05.02-.05.02-.05.02-.05.02-.05.02-.05.02-.06.02-.04.02-.05.02-.05.02-.1.05-.05.03-.05.02-.05.03-.04.02-.05.03-.05.03-.04.03-.05.03-.05.03-.04.02-.05.04-.04.03-.05.03-.04.03-.05.03-.04.04-.09.06-.04.04-.04.04-.04.03-.04.04-.04.04-.04.03-.04.04-.08.08-.04.04-.04.04-.04.04-.04.04-.03.05-.04.04-.04.04-.07.1-.03.04-.04.04-.03.05-.03.05-.04.05-.03.04-.03.05-.03.05-.03.04-.03.05-.02.05-.03.05-.03.05-.02.05-.03.05-.02.04-.03.05-.02.05-.02.05-.02.05-.05.1-.02.05-.02.05-.01.06-.02.05-.02.05-.03.1-.02.05-.01.05-.01.05-.02.05-.01.05-.01.06-.01.05-.01.05-.01.05-.01.05-.01.06v.05l-.01.05-.01.05v.06l-.02.1v.16l-.01.05v.42l.02.1v.11l.01.05.02.1v.06l.01.05.01.05.01.05.02.1.02.06.02.1.02.05.01.05.02.05.01.05.02.05.01.05.02.05.02.05.02.05.02.05.02.05.02.05.02.05.02.04.02.05.03.05.02.05.02.04.05.1.03.04.03.05.02.05.03.04.03.05.03.04.03.05.03.04.03.05.03.04.03.04.07.1.03.03.04.05.03.04.04.04.07.08.11.12.04.04.08.08.08.07.05.04.04.04.04.04.05.03.04.04.05.03.04.04.05.03.05.04.04.03.05.03.05.03.05.04.05.03.05.03.04.03.05.02.05.03.1.06.05.02.05.03.1.04.06.03.1.04.05.02.05.02.05.02.06.02.05.02.05.02.05.01.06.02.15.05.06.01.05.01.06.02h.05l.1.03h.06l.05.02h.06l.05.01.06.01h.05l.05.01.06.01h.11l.05.01H550.42l.05-.01h.05l.06-.02h.11l.05-.02h.05l.06-.02.1-.02h.06l.05-.02.1-.03.11-.02.05-.02.1-.03.06-.02.05-.01.05-.02.1-.04.06-.02.15-.06.05-.03.1-.04.04-.03.05-.02.05-.03.05-.02.04-.03.1-.05.05-.03.04-.03.05-.03.04-.03.14-.1.04-.02.05-.04.04-.03.09-.07.04-.03.08-.08.04-.03.09-.08.04-.04.07-.07.04-.04.04-.05.04-.04.04-.04.03-.04.04-.04.04-.05.03-.04.04-.05.03-.04.04-.05.03-.05.03-.04.04-.05.03-.05.03-.04.06-.1.03-.05.03-.05.02-.04.03-.05.02-.05.03-.05.02-.05.03-.05.02-.05.02-.05.03-.05.02-.05.02-.05.02-.05.02-.05.01-.05.02-.05.04-.1.01-.05.02-.05.01-.05.01-.06.02-.05.02-.1.01-.05.01-.05.01-.06.01-.05.02-.1.01-.1v-.06l.01-.05v-.05l.02-.1v-.06-.42-.05l-.01-.1v-.06l-.02-.05v-.06l-.02-.1v-.05l-.01-.05-.02-.1-.01-.06-.01-.05-.02-.05-.02-.1-.03-.1-.01-.05-.02-.05-.02-.06-.01-.04-.02-.05-.02-.05-.02-.05-.02-.05-.02-.05-.02-.05-.02-.05-.04-.1-.03-.04-.02-.05-.02-.05-.03-.05-.02-.04-.03-.05-.03-.05-.02-.04-.03-.05-.03-.04-.03-.05-.03-.04-.03-.05-.03-.04-.03-.05-.03-.04-.03-.04-.04-.04-.03-.05-.03-.04-.04-.04-.04-.04-.03-.04-.08-.09-.03-.04-.04-.04-.08-.07-.04-.04-.04-.04-.09-.08-.04-.03-.04-.04-.05-.04-.09-.07-.04-.03-.05-.04-.1-.06-.04-.04-.05-.03-.05-.03-.05-.03-.04-.03-.05-.03-.05-.03-.05-.03-.05-.02-.1-.06-.05-.02-.05-.02-.05-.03-.06-.02-.1-.05-.1-.04-.16-.05-.05-.02-.1-.04-.06-.01-.05-.02-.05-.01-.06-.01-.05-.02h-.05l-.06-.02-.1-.02-.06-.01-.05-.01-.06-.01h-.05l-.06-.02h-.05-.05l-.06-.01h-.05l-.06-.01h-.11l-.05-.01h-.22zM544.91 172.95l-19.5 5.72-13.6-4.48-9.57 3-1.1-3.54 10.7-3.35 13.64 4.49 18.39-5.4 1.04 3.56z"/><path d="M495.6 181.16l8.98-2.8-2.25-6.98-8.99 2.8 2.26 6.98z"/></g><path d="M495.6 181.16l8.98-2.8-2.25-6.98-8.99 2.8 2.26 6.98z" fill="none" stroke="#757778" stroke-linecap="square" stroke-miterlimit="1.5" stroke-width="1.2" vector-effect="non-scaling-stroke"/><g fill="#757778" fill-rule="evenodd"><path d="M550.08 161.16h.2l.2.01h.1l.1.02h.1l.1.01.1.02h.1l.1.02.1.01.19.04.1.01.1.02.09.02.2.05.09.02.1.03.09.02.1.03.09.03.09.02.1.03.09.04.09.03.09.03.1.04.17.07.1.04.17.07.1.04.08.05.09.04.09.04.08.05.09.04.09.05.08.05.09.05.08.05.08.05.09.05.08.05.08.06.08.05.08.06.08.05.08.06.08.06.08.06.15.12.15.13.15.13.07.06.07.07.07.07.08.07.06.07.07.07.07.07.07.07.07.08.06.07.07.08.06.07.06.08.07.08.06.08.06.08.06.08.06.08.05.08.06.08.05.09.06.08.05.09.06.08.05.1.05.08.05.09.05.09.04.09.05.09.05.09.04.1.04.09.05.09.04.1.04.09.03.1.04.1.04.09.03.1.04.1.03.1.03.1.03.1.03.1.03.1.02.1.03.1.02.1.03.1.02.1.02.1.01.1.02.1.02.1v.1l.02.1.01.1.01.1.01.1.01.1v.1l.01.1V169.8l-.02.1v.1l-.02.1v.1l-.02.1-.03.2-.01.09-.02.1-.02.1-.02.09-.02.1-.02.09-.02.1-.03.1-.02.09-.03.09-.03.1-.03.09-.02.09-.04.1-.03.09-.03.09-.03.09-.04.09-.04.09-.03.09-.04.09-.08.18-.04.09-.05.08-.04.09-.1.17-.04.09-.05.08-.05.09-.05.08-.05.08-.05.09-.05.08-.06.08-.05.08-.06.08-.05.08-.06.08-.06.08-.06.07-.06.08-.06.08-.07.07-.06.08-.13.14-.07.08-.06.07-.07.07-.07.07-.07.07-.07.07-.08.06-.07.07-.07.07-.15.13-.16.12-.08.06-.07.07-.08.06-.08.05-.09.06-.08.06-.08.06-.09.05-.08.06-.09.05-.08.05-.09.05-.09.05-.09.05-.18.1-.09.05-.18.09-.1.04-.09.04-.1.04-.09.04-.1.04-.1.04-.09.04-.1.03-.1.04-.1.03-.1.03-.1.03-.1.03-.1.03-.1.03-.1.02-.1.02-.1.03-.1.02-.1.02-.1.02-.1.02-.1.01-.11.02-.1.01-.1.01-.1.01-.1.01-.1.01-.1.01h-.1l-.11.01H549.58l-.1-.01h-.1l-.1-.02h-.1l-.1-.02h-.1l-.1-.02-.1-.02-.1-.01-.1-.02-.09-.01-.1-.02-.1-.02-.18-.05-.1-.02-.1-.03-.09-.02-.1-.03-.09-.03-.1-.03-.09-.03-.09-.03-.1-.03-.08-.03-.19-.07-.18-.08-.09-.04-.09-.04-.09-.04-.08-.04-.1-.04-.08-.04-.17-.1-.09-.04-.08-.05-.09-.05-.08-.05-.09-.05-.08-.05-.08-.05-.08-.06-.08-.05-.08-.06-.08-.06-.08-.05-.16-.12-.15-.12-.08-.07-.07-.06-.08-.06-.07-.07-.07-.07-.08-.06-.07-.07-.07-.07-.07-.07-.07-.07-.06-.07-.07-.07-.07-.08-.06-.07-.07-.08-.06-.07-.07-.08-.06-.08-.06-.08-.06-.08-.06-.08-.06-.08-.05-.08-.06-.09-.06-.08-.05-.08-.06-.09-.05-.09-.05-.08-.05-.09-.05-.09-.05-.09-.05-.09-.04-.09-.05-.1-.04-.08-.05-.1-.04-.09-.04-.1-.04-.09-.04-.1-.03-.1-.04-.09-.04-.1-.03-.1-.03-.1-.03-.1-.03-.1-.03-.1-.03-.1-.03-.1-.05-.2-.02-.1-.02-.1-.02-.1-.02-.1-.01-.1-.02-.1-.01-.1-.03-.2v-.1l-.02-.1v-.1l-.01-.1v-.2l-.01-.2v-.4l.01-.1v-.1l.01-.1.01-.1.01-.1.01-.1.02-.1.02-.2.02-.09.02-.1.02-.1.02-.09.02-.1.02-.1.02-.09.03-.1.02-.09.03-.1.02-.09.03-.09.03-.1.03-.08.04-.1.03-.09.03-.09.04-.1.03-.08.04-.1.04-.08.08-.18.04-.09.05-.08.04-.09.04-.09.05-.08.05-.09.04-.08.05-.09.05-.08.05-.08.06-.09.05-.08.05-.08.06-.08.06-.08.05-.08.06-.08.06-.08.06-.07.06-.08.06-.08.06-.07.07-.08.06-.07.07-.07.07-.08.06-.07.07-.07.07-.07.07-.07.07-.07.07-.06.08-.07.07-.07.08-.06.07-.07.08-.06.07-.06.08-.06.08-.07.08-.06.08-.06.08-.05.09-.06.08-.06.08-.05.09-.06.08-.05.09-.05.09-.06.09-.05.08-.05.18-.1.1-.04.09-.04.09-.05.1-.04.09-.04.1-.04.09-.04.1-.04.09-.04.1-.04.1-.03.1-.04.1-.03.1-.03.1-.03.1-.03.1-.03.1-.03.1-.02.1-.03.1-.02.1-.02.1-.02.1-.02.1-.02.1-.01.1-.02.1-.01.11-.01.1-.01.1-.01.1-.01.2-.02H549.88l.11-.01h.1zm-.13 3.7H549.72l-.05.01h-.06l-.06.01h-.05l-.11.02-.06.01h-.06l-.05.02-.11.02-.06.01-.06.01-.05.02-.06.01-.06.02-.05.01-.06.02-.05.02-.06.01-.06.02-.05.02-.06.02-.05.02-.1.04-.06.03-.05.02-.05.02-.06.03-.1.05-.05.02-.05.03-.05.02-.04.03-.1.06-.05.03-.04.02-.05.03-.05.03-.04.04-.05.03-.04.03-.05.03-.04.03-.04.04-.05.03-.04.04-.04.03-.04.03-.04.04-.04.04-.04.03-.04.04-.04.04-.08.07-.07.08-.04.04-.03.04-.04.04-.03.04-.04.04-.03.04-.03.05-.04.04-.03.04-.03.04-.03.05-.03.04-.03.04-.03.05-.03.04-.03.05-.03.04-.02.05-.03.05-.03.04-.02.05-.05.1-.02.04-.03.05-.06.14-.03.05-.02.05-.02.05-.01.05-.06.15-.03.1-.02.05-.01.05-.02.05v.05l-.02.05-.01.05-.02.05v.05l-.02.06v.05l-.02.05v.05l-.01.05-.01.06v.05l-.01.05v.06l-.01.05v.05l-.01.05V169.6l.01.06v.05l.01.05.02.11v.06l.02.1.03.11v.06l.02.05.01.06.02.05.01.05.04.11.01.06.02.05.02.06.02.05.02.05.02.05.02.06.02.05.02.05.03.05.02.05.02.05.03.05.02.05.03.05.03.04.02.05.03.05.03.05.03.04.02.05.03.04.03.05.04.05.03.04.06.09.03.04.04.04.03.04.03.05.04.04.03.04.04.04.03.04.04.04.04.04.04.04.07.07.04.04.04.04.08.07.08.07.04.03.05.04.04.03.04.03.04.03.05.04.09.06.09.06.04.03.05.03.04.02.05.03.05.03.1.05.04.03.05.02.05.03.04.02.05.02.05.03.05.02.05.02.05.02.05.02.05.02.05.02.05.02.06.02.05.01.05.02.1.03.06.02.05.01.1.03.06.01.1.02.06.01.05.01.06.01.05.01h.05l.06.02h.11l.05.01h.06l.05.01h.11l.06.01H550.33l.06-.01h.06l.05-.01h.06l.05-.02h.06l.06-.01.05-.01.06-.01.05-.01.06-.01.06-.01.05-.02h.06l.06-.02.05-.02.06-.01.06-.02.16-.05.06-.02.05-.02.06-.02.05-.02.05-.03.06-.02.05-.02.05-.02.1-.05.05-.03.05-.02.1-.06.05-.02.1-.06.04-.03.05-.03.05-.03.04-.03.05-.03.09-.06.04-.03.05-.04.04-.03.08-.07.05-.03.08-.07.04-.04.04-.04.04-.03.04-.04.03-.04.04-.04.04-.03.04-.04.03-.04.04-.04.03-.04.04-.04.03-.04.04-.05.03-.04.03-.04.03-.04.04-.05.03-.04.03-.04.03-.05.03-.04.03-.05.02-.04.03-.05.03-.04.03-.05.02-.04.03-.05.05-.1.02-.04.02-.05.07-.14.02-.05.02-.05.02-.05.02-.05.02-.05.02-.05.03-.1.03-.1.02-.05.01-.05.01-.05.02-.05.01-.05.01-.05.01-.06.02-.1.02-.1.01-.06v-.05l.02-.1v-.11l.01-.05v-.11l.01-.05V169l-.02-.16v-.11l-.02-.1-.01-.06v-.05l-.03-.11-.01-.05-.01-.06-.03-.1-.01-.06-.02-.06-.03-.1-.02-.06-.01-.05-.02-.06-.02-.05-.02-.05-.02-.06-.02-.05-.03-.05-.02-.05-.02-.05-.02-.05-.03-.05-.02-.05-.03-.05-.02-.05-.03-.05-.03-.04-.02-.05-.03-.05-.03-.05-.03-.04-.03-.05-.03-.04-.03-.05-.03-.04-.03-.05-.03-.04-.03-.04-.04-.04-.03-.05-.04-.04-.03-.04-.04-.04-.03-.04-.04-.04-.03-.04-.04-.04-.04-.04-.04-.04-.04-.03-.03-.04-.04-.04-.08-.07-.09-.07-.04-.03-.04-.04-.04-.03-.04-.03-.05-.04-.04-.03-.05-.03-.04-.03-.04-.03-.05-.03-.04-.03-.05-.03-.05-.03-.04-.02-.05-.03-.1-.05-.04-.03-.05-.02-.05-.03-.05-.02-.05-.03-.05-.02-.04-.02-.05-.02-.05-.02-.06-.02-.05-.02-.05-.02-.05-.02-.05-.02-.05-.01-.05-.02-.1-.03-.06-.02-.05-.01-.06-.02h-.05l-.05-.02-.06-.01-.05-.01-.1-.02-.06-.01-.05-.01-.06-.01h-.05l-.06-.01-.05-.01-.11-.01h-.06l-.1-.01H549.94zM654.75 159.33l-36.23 56.18-40.08 19-12.8 14.5-2.76-2.45 13.3-15.05L616 212.63l35.65-55.3 3.1 2z"/><path d="M561.88 255.71l6.36-6.84-5.5-4.94-6.36 6.84 5.5 4.94z"/></g><path d="M561.88 255.71l6.36-6.84-5.5-4.94-6.36 6.84 5.5 4.94z" fill="none" stroke="#757778" stroke-linecap="square" stroke-miterlimit="1.5" stroke-width="1.21" vector-effect="non-scaling-stroke"/><g fill="#757778" fill-rule="evenodd"><path d="M655.97 145.54H656.27l.1.01.09.01h.1l.1.02h.1l.09.02.1.01.1.01.1.02.09.02.1.01.1.02.09.02.1.02.1.02.09.02.1.03.1.02.09.03.1.03.09.03.1.03.09.03.09.03.1.03.09.04.1.03.08.04.1.04.18.08.1.04.08.04.1.05.08.04.1.05.08.04.18.1.09.05.17.11.1.05.08.06.08.06.09.05.08.06.08.06.09.07.08.06.08.06.08.07.08.06.08.07.08.07.16.14.15.14.07.08.08.07.07.07.07.08.14.15.07.08.06.08.07.08.06.08.07.08.06.08.06.08.06.08.06.08.06.09.05.08.06.09.05.08.05.09.06.08.05.09.05.08.04.1.05.08.05.09.04.09.05.09.04.09.04.09.04.09.04.09.04.1.03.08.04.1.03.09.04.09.03.1.03.09.03.09.03.1.03.09.02.1.03.09.02.1.02.09.02.1.02.09.02.1.02.09.02.1.01.1.02.09.01.1.01.1.01.09.01.1.02.19v.1l.01.1v.19l.01.1v.39l-.01.1v.1l-.01.09-.01.1-.01.1-.02.19-.02.1v.1l-.02.09-.02.1-.02.09-.02.1-.02.1-.02.09-.02.1-.02.09-.03.1-.02.1-.03.09-.03.09-.03.1-.03.09-.03.1-.03.09-.04.09-.03.1-.04.08-.04.1-.04.09-.04.09-.04.1-.04.08-.05.1-.04.08-.05.1-.04.08-.05.09-.05.09-.05.08-.06.1-.05.08-.05.08-.06.09-.06.08-.05.09-.06.08-.06.09-.07.08-.06.08-.06.08-.07.08-.06.08-.07.08-.07.08-.07.08-.07.08-.07.07-.07.08-.08.07-.07.07-.08.08-.07.07-.08.07-.08.07-.15.13-.08.06-.08.07-.08.06-.09.06-.08.06-.08.06-.08.06-.09.06-.08.06-.09.05-.08.06-.09.05-.08.05-.09.05-.09.05-.09.05-.08.05-.1.04-.08.05-.18.08-.18.09-.1.03-.09.04-.09.04-.1.04-.18.06-.1.04-.09.03-.09.03-.1.03-.09.02-.1.03-.09.03-.1.02-.09.02-.1.02-.09.03-.1.02-.1.01-.09.02-.1.02-.1.01-.09.02-.1.01-.1.01-.1.01-.09.01-.1.01h-.1l-.1.01h-.1l-.09.01h-.59l-.2-.01h-.09l-.1-.01-.1-.01-.1-.01-.1-.01-.09-.02-.1-.01-.1-.01-.09-.02-.1-.02-.1-.02-.1-.02-.09-.02-.1-.02-.09-.02-.1-.02-.1-.03-.09-.03-.19-.05-.1-.03-.09-.03-.1-.04-.09-.03-.09-.03-.1-.04-.09-.04-.09-.03-.09-.04-.1-.04-.08-.05-.1-.04-.09-.04-.09-.05-.09-.04-.17-.1-.1-.05-.08-.05-.09-.05-.09-.06-.08-.05-.09-.06-.08-.05-.09-.06-.08-.06-.09-.06-.08-.06-.08-.07-.08-.06-.08-.06-.08-.07-.08-.07-.08-.06-.08-.07-.16-.15-.07-.07-.08-.07-.07-.08-.07-.07-.07-.08-.07-.07-.07-.08-.07-.08-.07-.07-.06-.08-.07-.08-.06-.08-.06-.08-.06-.09-.06-.08-.06-.08-.06-.08-.05-.09-.06-.08-.05-.09-.06-.08-.05-.09-.05-.08-.05-.1-.05-.08-.04-.09-.05-.08-.04-.1-.05-.08-.04-.1-.04-.08-.04-.1-.04-.08-.04-.1-.04-.09-.03-.09-.04-.1-.03-.09-.03-.09-.03-.1-.03-.09-.03-.09-.03-.1-.02-.09-.03-.1-.02-.09-.02-.1-.03-.09-.02-.1-.01-.09-.02-.1-.02-.1-.02-.09v-.1l-.02-.1-.01-.09-.02-.1v-.1l-.01-.09-.01-.1v-.1l-.01-.09v-.1-.1l-.01-.1V153.42v-.1l.01-.09v-.1l.01-.1.01-.1.01-.09.01-.1.01-.1.01-.09.02-.1.03-.19.02-.1.02-.1.02-.09.02-.1.02-.09.02-.1.03-.1.02-.09.03-.1.03-.09.03-.09.06-.19.03-.1.07-.18.04-.09.04-.1.04-.08.04-.1.04-.09.04-.09.04-.09.05-.09.05-.09.04-.09.05-.08.05-.1.05-.08.05-.09.06-.08.05-.09.06-.09.05-.08.06-.08.06-.09.06-.08.06-.08.07-.09.06-.08.07-.08.06-.08.07-.08.07-.08.07-.07.07-.08.07-.08.07-.07.08-.08.07-.07.08-.07.07-.07.08-.07.08-.07.07-.07.16-.13.08-.06.08-.07.08-.06.09-.06.16-.12.17-.11.09-.06.08-.05.09-.05.08-.06.09-.05.09-.05.09-.04.08-.05.1-.05.08-.04.1-.05.08-.04.1-.04.08-.04.1-.04.09-.04.09-.03.1-.04.08-.04.19-.06.1-.03.09-.03.1-.03.09-.03.1-.03.09-.02.1-.03.09-.02.1-.02.09-.02.1-.02.1-.02.09-.02.1-.01.1-.02.09-.01.1-.02h.1l.1-.02h.09l.1-.02h.2l.09-.01h.1l.2-.01h.19zm-.16 3.7h-.06l-.05.01H655.53l-.05.01h-.05l-.06.01h-.05l-.06.01-.05.01h-.05l-.06.02h-.05l-.06.02h-.05l-.1.03-.16.04-.06.01-.05.02-.05.01-.05.02-.06.01-.05.02-.05.02-.05.02-.05.02-.1.04-.05.02-.1.04-.1.05-.1.05-.05.02-.1.05-.04.03-.05.03-.05.03-.05.03-.04.02-.05.03-.04.04-.05.03-.05.03-.04.03-.05.03-.04.04-.04.03-.05.04-.04.03-.04.04-.05.04-.08.07-.04.04-.04.04-.04.04-.04.04-.08.09-.04.04-.04.04-.04.04-.04.05-.03.04-.04.04-.03.05-.04.04-.03.05-.03.04-.04.05-.06.1-.03.04-.03.04-.03.05-.02.05-.03.04-.03.05-.02.05-.03.05-.02.04-.03.05-.02.05-.02.05-.03.05-.02.05-.02.05-.02.05-.02.05-.02.05-.03.1-.02.05-.02.05-.01.05-.03.1-.02.05-.01.05-.02.1-.02.05-.02.1v.06l-.01.05-.01.05-.02.1v.06l-.01.05v.11l-.01.05v.1l-.01.06v.42l.01.05.01.1v.06l.02.05v.05l.01.05v.05l.02.05v.06l.02.05v.05l.03.1.02.05v.05l.02.05.02.06.01.05.02.05.03.1.02.05.02.05.02.05.02.04.02.05.02.05.02.05.02.05.03.05.02.05.02.04.03.05.02.05.03.05.03.04.02.05.03.05.03.04.03.05.03.04.03.05.03.04.03.05.03.04.04.05.03.04.03.04.04.05.03.04.04.04.07.08.04.05.04.04.12.12.04.04.05.04.04.04.04.03.05.04.04.04.04.04.05.03.09.07.04.04.05.03.1.06.09.06.04.03.05.03.1.06.05.03.04.02.05.03.05.02.05.03.05.02.1.05.05.02.05.02.05.02.05.02.06.02.05.02.1.04.05.02.1.03.11.03.06.01.05.02h.05l.1.03.06.01.06.01.05.01.05.01h.06l.05.02h.11l.05.01.06.01h.1l.06.01h.55l.1-.01h.06l.05-.01.06-.01h.05l.05-.02h.06l.05-.01.06-.01.05-.01.05-.01.1-.03.06-.01.05-.01.06-.02.05-.01.16-.05.05-.02.05-.02.05-.01.1-.04.05-.02.05-.02.05-.03.05-.02.05-.02.05-.02.05-.03.1-.05.05-.02.05-.03.04-.03.05-.02.05-.03.05-.03.04-.03.05-.03.1-.06.04-.04.09-.06.04-.03.09-.07.08-.08.05-.03.04-.04.04-.04.04-.04.08-.08.04-.04.04-.04.04-.04.04-.04.04-.05.04-.04.04-.04.03-.05.07-.09.04-.04.03-.04.03-.05.07-.1.03-.04.03-.04.03-.05.03-.05.02-.04.03-.05.03-.05.02-.04.05-.1.03-.05.02-.05.02-.05.03-.04.02-.05.02-.05.02-.05.02-.05.02-.05.02-.05.03-.1.02-.05.01-.05.02-.05.03-.1.01-.06.01-.05.01-.05.02-.05v-.05l.02-.05.01-.1.01-.06.01-.05v-.05l.01-.06v-.05l.01-.05v-.05l.01-.06v-.05-.1l.01-.06v-.26-.05-.05l-.01-.05v-.06l-.01-.05v-.05l-.02-.1-.02-.1v-.06l-.02-.05v-.05l-.02-.06-.01-.05-.01-.05-.02-.05-.02-.1-.02-.05-.01-.05-.02-.05-.02-.05-.01-.05-.02-.05-.02-.05-.02-.05-.04-.1-.02-.05-.02-.05-.02-.05-.03-.04-.02-.05-.02-.05-.05-.1-.03-.04-.03-.05-.02-.05-.06-.09-.03-.04-.06-.1-.03-.04-.03-.04-.03-.05-.04-.04-.03-.05-.03-.04-.04-.04-.03-.04-.04-.05-.04-.04-.07-.08-.04-.04-.04-.04-.04-.04-.04-.04-.04-.04-.09-.08-.04-.04-.05-.04-.04-.04-.04-.03-.05-.04-.04-.03-.05-.04-.04-.03-.1-.07-.04-.03-.05-.03-.1-.06-.04-.03-.05-.03-.05-.03-.05-.02-.05-.03-.04-.03-.05-.02-.05-.03-.05-.02-.1-.05-.05-.02-.16-.06-.05-.02-.05-.02-.05-.02-.05-.02-.1-.03-.06-.01-.05-.02-.1-.03-.11-.02-.06-.02h-.05l-.05-.02h-.06l-.05-.02h-.05l-.06-.01-.05-.01h-.06l-.05-.02h-.11l-.05-.01H656.02l-.05-.01h-.16zM128.6 176.82l-.32 14.1L134 199l-2.99 2.11-6.43-9.08.33-14.13-10.67-15.65 3.02-2.06 11.33 16.62z"/><path d="M139.9 204.08l-5.39-7.6-6.1 4.18 5.38 7.6 6.11-4.18z"/></g><path d="M139.9 204.08l-5.39-7.6-6.1 4.18 5.38 7.6 6.11-4.18z" fill="none" stroke="#757778" stroke-linecap="square" stroke-miterlimit="1.5" stroke-width="1.2" vector-effect="non-scaling-stroke"/><g fill="#757778" fill-rule="evenodd"><path d="M112.29 148.42H112.59l.1.01h.09l.1.02h.1l.1.01.09.01.1.02.1.01.09.01.1.02.1.01.18.04.1.02.1.02.09.02.1.03.09.02.1.03.18.05.1.03.09.03.09.03.1.03.08.03.1.04.09.03.18.08.18.08.09.04.09.04.09.04.08.05.1.04.16.1.1.04.08.05.08.05.09.05.08.06.08.05.09.06.08.05.08.06.08.06.08.06.08.06.08.06.08.06.08.06.07.07.08.06.08.07.07.07.08.07.07.07.07.07.08.07.07.07.07.08.07.07.07.08.06.07.07.08.07.08.06.08.07.08.06.08.06.09.07.08.06.09.06.08.05.09.06.08.06.1.05.08.06.09.05.09.05.09.05.08.05.1.05.08.04.1.05.09.04.09.04.1.04.08.04.1.04.09.04.1.04.09.03.1.03.09.04.09.03.1.03.09.03.1.02.1.03.09.03.1.02.09.02.1.02.1.02.09.02.1.02.1.02.09.01.1.02.1v.1l.02.09.01.1.01.1v.1l.01.09.01.1v.2l.01.09v.49l-.01.1v.09l-.03.2v.09l-.02.1v.1l-.04.18-.01.1-.02.1-.02.1-.02.09-.02.1-.02.09-.02.09-.02.1-.03.09-.03.1-.02.09-.03.09-.03.1-.03.08-.06.19-.04.09-.03.09-.04.09-.04.09-.04.09-.04.09-.04.09-.04.09-.04.09-.04.08-.05.09-.05.09-.04.08-.05.09-.05.08-.05.09-.05.08-.06.09-.05.08-.06.08-.05.08-.06.09-.06.08-.06.08-.06.08-.06.07-.06.08-.06.08-.07.08-.07.07-.06.08-.07.07-.07.08-.07.07-.07.07-.07.07-.07.07-.08.07-.07.07-.08.07-.08.07-.07.07-.08.06-.08.07-.09.06-.08.07-.08.06-.08.06-.09.06-.09.06-.08.06-.09.06-.09.05-.09.06-.08.05-.1.05-.08.05-.1.05-.08.05-.1.05-.09.05-.09.04-.09.04-.1.05-.09.04-.09.04-.1.04-.09.04-.09.03-.1.04-.09.03-.19.07-.1.03-.1.03-.09.02-.1.03-.1.03-.09.02-.1.02-.1.02-.09.03-.1.02-.1.01-.1.02-.09.02-.1.01-.1.02h-.1l-.19.03-.2.02h-.19l-.1.01h-.79l-.09-.01-.2-.02h-.1l-.09-.02-.1-.01-.1-.01-.09-.02-.19-.03-.1-.02-.1-.01-.09-.02-.1-.03-.09-.02-.1-.02-.09-.02-.1-.03-.18-.05-.19-.06-.09-.03-.1-.03-.08-.04-.19-.07-.09-.03-.09-.04-.09-.04-.09-.04-.09-.04-.09-.04-.08-.05-.1-.04-.08-.04-.09-.05-.08-.05-.1-.05-.16-.1-.09-.05-.08-.05-.08-.05-.09-.06-.08-.06-.08-.05-.08-.06-.16-.12-.08-.06-.08-.06-.08-.07-.07-.06-.08-.07-.08-.06-.07-.07-.08-.07-.07-.07-.07-.07-.07-.07-.08-.08-.07-.07-.07-.07-.07-.08-.06-.08-.07-.08-.07-.07-.06-.08-.07-.08-.06-.09-.06-.08-.07-.08-.06-.09-.06-.08-.05-.1-.06-.08-.06-.08-.05-.1-.06-.08-.05-.09-.05-.09-.05-.09-.05-.09-.05-.09-.04-.09-.05-.1-.04-.08-.04-.1-.04-.09-.04-.09-.04-.1-.04-.09-.04-.09-.03-.1-.03-.09-.04-.1-.03-.09-.03-.1-.03-.09-.02-.1-.03-.09-.03-.1-.02-.1-.02-.09-.02-.1-.02-.1-.02-.09-.04-.2-.01-.09-.02-.1v-.1l-.03-.19-.01-.1v-.1l-.01-.1-.01-.09v-.1-.1l-.01-.1V156.32v-.19l.01-.1.01-.1v-.09l.02-.1v-.1l.02-.09v-.1l.02-.1.03-.18.02-.1.02-.1.02-.09.02-.1.02-.09.02-.1.02-.09.03-.1.03-.08.02-.1.03-.1.03-.08.03-.1.03-.09.04-.1.03-.08.03-.1.04-.08.04-.1.04-.08.04-.1.04-.08.04-.1.04-.08.05-.09.04-.08.05-.09.04-.09.05-.08.1-.17.05-.09.06-.08.05-.08.06-.08.05-.09.06-.08.06-.08.06-.08.06-.08.06-.08.06-.07.07-.08.06-.08.07-.07.06-.08.07-.08.07-.07.07-.07.07-.07.07-.08.07-.07.08-.07.07-.07.16-.13.08-.07.07-.07.08-.06.09-.06.08-.07.08-.06.08-.06.09-.06.09-.06.08-.06.09-.06.09-.05.09-.06.08-.05.1-.05.08-.06.18-.1.1-.04.09-.05.09-.04.09-.05.19-.08.09-.04.1-.04.09-.04.1-.03.09-.04.09-.03.1-.04.1-.03.09-.03.1-.03.09-.03.1-.02.1-.03.09-.02.1-.03.1-.02.09-.02.1-.02.1-.02.1-.01.09-.02.1-.01.1-.02.1-.01.09-.01.1-.01.1-.01h.1l.19-.02h.2l.1-.01h.19zm-.14 3.65h-.12l-.16.01-.11.01h-.05l-.06.01h-.05l-.06.02h-.05l-.06.01-.05.01-.06.01-.1.02-.06.02-.05.01-.06.01-.05.02-.05.01-.06.02-.05.01-.1.04-.06.02-.05.02-.05.02-.06.02-.05.02-.1.04-.05.02-.06.03-.05.02-.05.03-.05.02-.05.03-.05.03-.1.05-.05.03-.1.06-.14.1-.05.03-.1.07-.04.04-.05.03-.09.07-.04.04-.09.07-.04.04-.04.04-.04.04-.08.08-.04.04-.08.08-.03.04-.04.04-.04.04-.03.04-.04.04-.03.05-.03.04-.04.04-.06.09-.03.04-.03.05-.03.04-.03.05-.03.04-.06.1-.02.04-.03.05-.03.05-.02.04-.03.05-.02.05-.02.05-.03.04-.02.05-.02.05-.02.05-.02.05-.02.05-.02.05-.02.05-.02.05-.01.05-.02.05-.02.05-.01.05-.02.05-.02.1-.02.06v.05l-.02.05-.01.05-.02.1-.02.1v.06l-.01.05-.01.06v.05l-.01.05v.05l-.01.06v.1l-.01.1v.38l.01.05.01.1v.06l.02.1v.06l.01.05.01.05.01.05.01.06.01.05.01.05.02.05.01.06.01.05.02.05.01.05.02.05.01.05.04.1.02.06.02.05.04.1.02.05.02.05.02.05.02.05.03.05.02.05.03.05.02.05.06.1.02.05.03.04.03.05.03.05.03.05.04.05.03.04.03.05.03.05.04.05.03.04.04.05.03.04.04.04.04.05.03.04.08.09.04.04.04.04.04.04.03.04.04.04.09.07.08.08.04.03.04.04.05.03.04.04.04.03.1.07.04.03.04.03.05.03.09.06.04.03.05.03.05.03.05.02.04.03.05.03.05.02.05.03.05.02.05.02.05.03.05.02.05.02.1.05.1.04.05.01.05.02.05.02.05.02.06.01.05.02.05.02.05.01.06.02.16.03.1.03h.06l.05.02h.06l.05.01.06.01.05.01h.05l.06.01h.05l.17.02H112.62l.05-.01.11-.02h.05l.06-.01h.05l.06-.02h.05l.06-.02.1-.02.06-.01.05-.01.06-.02.05-.01.05-.02.06-.01.05-.02.05-.02.1-.03.06-.02.1-.04.06-.02.05-.02.1-.05.06-.02.15-.08.05-.02.1-.06.1-.05.05-.03.05-.04.05-.03.05-.03.1-.06.04-.04.05-.03.04-.04.05-.03.04-.04.05-.03.04-.04.05-.04.04-.04.08-.07.04-.04.04-.04.04-.04.04-.04.04-.04.04-.04.07-.08.04-.04.03-.04.04-.05.03-.04.03-.04.04-.05.03-.04.03-.04.03-.05.03-.04.03-.05.03-.04.03-.05.03-.04.03-.05.02-.05.03-.04.03-.05.02-.05.03-.04.02-.05.02-.05.03-.05.02-.05.02-.05.02-.04.02-.05.02-.05.02-.05.02-.05.02-.05.01-.05.02-.05.02-.05.01-.06.02-.05.01-.05.03-.1v-.05l.02-.05.01-.05.01-.06.01-.05.01-.05v-.05l.02-.05v-.06l.01-.05v-.05l.01-.05v-.06l.02-.1v-.06V156.27v-.06l-.01-.05v-.11l-.02-.1v-.06l-.02-.05v-.05l-.01-.06-.01-.05-.01-.05-.02-.1-.02-.06-.01-.05-.03-.1-.01-.05-.02-.06-.01-.05-.02-.05-.02-.05-.02-.05-.02-.05-.01-.05-.03-.05-.02-.05-.02-.05-.02-.05-.02-.05-.03-.05-.05-.1-.02-.05-.03-.05-.08-.15-.06-.1-.03-.04-.03-.05-.04-.05-.03-.05-.03-.04-.07-.1-.04-.04-.03-.04-.04-.05-.04-.04-.03-.05-.04-.04-.04-.04-.04-.04-.04-.04-.03-.04-.04-.04-.04-.04-.04-.04-.05-.04-.04-.03-.08-.07-.04-.04-.05-.04-.04-.03-.04-.03-.05-.04-.04-.03-.05-.03-.04-.03-.05-.03-.04-.03-.05-.03-.1-.06-.04-.03-.05-.03-.04-.02-.1-.06-.05-.02-.1-.05-.05-.02-.05-.02-.1-.05-.05-.02-.1-.04-.05-.02-.05-.02-.05-.01-.1-.04-.06-.01-.05-.02-.05-.01-.11-.03-.05-.02h-.06l-.05-.02-.05-.01-.11-.02-.06-.01h-.05l-.05-.02h-.06l-.05-.01h-.06l-.1-.02h-.12l-.16-.01H112.14zM242.98 115.02l-2.32 2.85-10.45-8.51-20.43 10.86-32.93 1.91-.21-3.66 32.13-1.87 21.87-11.62 12.34 10.04z"/><path d="M249.87 118.84l-6.96-6.25-5.02 5.4 6.95 6.25 5.03-5.4z"/></g><path d="M249.87 118.84l-6.96-6.25-5.02 5.4 6.95 6.25 5.03-5.4z" fill="none" stroke="#757778" stroke-linecap="square" stroke-miterlimit="1.5" stroke-width="1.19" vector-effect="non-scaling-stroke"/><path d="M171.17 112.13h.2l.1.01h.09l.1.01.1.01h.1l.19.03.1.01.19.03.1.02.1.01.09.02.1.02.1.02.09.02.1.03.09.02.1.02.09.03.1.03.09.03.1.03.09.03.1.03.08.03.1.04.1.03.08.04.1.04.09.04.09.04.09.04.1.04.08.04.1.05.08.05.09.04.09.05.09.05.09.05.08.05.09.06.09.05.17.11.08.06.08.06.17.12.08.06.08.07.09.06.08.07.07.07.08.06.08.07.08.07.08.07.07.08.07.07.08.07.07.08.07.07.07.08.07.07.07.08.06.08.07.08.06.08.06.08.07.08.06.08.06.08.05.08.06.09.06.08.05.08.06.09.05.08.05.09.05.08.05.09.05.09.05.08.04.1.05.08.04.1.04.08.04.09.04.09.04.1.04.08.04.1.03.08.04.1.03.09.06.18.03.1.03.1.03.09.02.09.03.1.02.09.02.1.03.09.02.1.01.09.02.1.02.1.03.18.01.1.01.1.02.1v.09l.01.1.01.1v.09l.01.1V120.13l.01.1v.19l-.01.2v.09l-.01.1-.01.1-.01.09-.02.2-.01.09-.02.1-.01.1-.02.09-.02.1-.02.09-.02.1-.02.1-.02.09-.02.1-.03.09-.02.1-.03.09-.03.1-.03.08-.06.2-.03.08-.04.1-.03.09-.04.1-.04.08-.03.1-.04.09-.05.09-.04.09-.04.09-.05.09-.04.09-.05.08-.05.1-.05.08-.05.09-.05.08-.05.1-.06.08-.05.08-.06.09-.06.08-.06.08-.06.09-.06.08-.06.08-.06.08-.07.08-.07.08-.06.08-.07.08-.07.08-.07.07-.07.08-.08.07-.07.08-.07.07-.08.07-.07.07-.08.07-.15.14-.08.06-.08.07-.08.06-.16.13-.08.06-.09.06-.08.06-.08.05-.09.06-.08.05-.09.06-.17.1-.17.1-.09.05-.09.05-.09.04-.08.05-.1.04-.08.04-.1.05-.08.04-.1.03-.09.04-.09.04-.18.07-.1.03-.09.03-.1.04-.09.03-.1.02-.09.03-.09.03-.1.02-.09.03-.1.02-.09.02-.1.02-.19.04-.1.02-.1.02-.09.01-.1.02-.19.02-.1.01-.1.01h-.09l-.1.01-.1.01h-.1l-.09.01h-.69l-.09-.01h-.1l-.1-.02h-.1l-.09-.02h-.1l-.1-.02-.19-.03-.1-.01-.1-.02-.09-.02-.1-.02-.19-.04-.1-.02-.09-.03-.1-.02-.09-.03-.1-.02-.09-.03-.1-.03-.09-.03-.09-.04-.1-.03-.09-.03-.09-.04-.1-.04-.09-.03-.09-.04-.09-.04-.18-.09-.09-.04-.09-.05-.09-.04-.09-.05-.09-.05-.09-.05-.08-.05-.1-.05-.08-.05-.08-.06-.09-.05-.08-.06-.09-.06-.08-.06-.09-.06-.08-.06-.08-.06-.08-.06-.08-.07-.08-.06-.08-.07-.08-.07-.08-.07-.08-.07-.07-.07-.08-.07-.07-.08-.08-.07-.07-.07-.07-.08-.07-.07-.07-.08-.06-.08-.07-.08-.07-.07-.06-.08-.06-.08-.06-.08-.07-.08-.06-.09-.05-.08-.06-.08-.06-.08-.05-.09-.06-.08-.05-.09-.05-.08-.05-.09-.05-.09-.05-.08-.04-.1-.05-.08-.05-.09-.04-.09-.04-.09-.04-.09-.04-.09-.04-.09-.04-.09-.04-.09-.03-.1-.04-.08-.03-.1-.06-.18-.03-.1-.03-.09-.03-.1-.02-.09-.03-.1-.02-.09-.02-.09-.02-.1-.02-.09-.02-.1-.02-.1-.02-.09-.03-.19-.01-.1-.01-.1-.01-.09-.01-.1-.01-.1v-.09l-.02-.1v-.19V119.78v-.1l.01-.1.01-.09.01-.1.01-.1.01-.09.02-.1.01-.1.01-.09.02-.1.02-.1.02-.09.02-.1.02-.09.02-.1.02-.09.03-.1.02-.09.03-.1.03-.09.03-.1.03-.08.03-.1.03-.1.04-.08.03-.1.04-.09.04-.09.04-.1.04-.08.04-.1.04-.08.04-.1.05-.08.04-.1.05-.08.05-.09.05-.09.05-.08.05-.1.05-.08.06-.08.05-.09.06-.08.06-.09.06-.08.06-.08.06-.09.06-.08.07-.08.06-.08.07-.08.06-.08.07-.08.07-.07.07-.08.07-.08.08-.07.07-.08.07-.07.08-.07.07-.07.08-.07.15-.14.08-.06.08-.07.08-.06.08-.06.16-.13.09-.05.08-.06.08-.06.09-.06.08-.05.09-.06.08-.05.09-.05.17-.1.09-.05.09-.04.09-.05.09-.05.09-.04.08-.04.1-.04.09-.04.09-.04.09-.04.1-.04.17-.07.1-.03.18-.06.1-.03.19-.06.19-.05.1-.03.09-.02.1-.02.09-.02.19-.04.1-.02.1-.01.09-.02.1-.01.1-.02.19-.02.19-.02h.2l.1-.01h.19l.1-.01h.19zm-.16 3.65h-.28l-.05.01h-.06l-.05.01h-.06l-.05.01-.06.01h-.05l-.05.02h-.06l-.1.03h-.06l-.05.02-.06.01-.05.01-.1.03-.11.03-.05.02-.06.02-.05.01-.05.02-.1.04-.1.04-.06.02-.1.04-.05.03-.1.04-.05.03-.1.05-.09.05-.1.06-.04.03-.1.06-.04.03-.1.06-.08.07-.05.03-.09.07-.04.04-.09.07-.04.04-.04.04-.04.04-.05.04-.04.04-.04.04-.08.08-.04.05-.04.04-.03.04-.04.05-.04.04-.03.05-.04.04-.03.05-.04.04-.03.05-.03.04-.03.05-.03.04-.03.05-.03.05-.03.04-.03.05-.03.05-.03.05-.05.1-.02.04-.03.05-.02.05-.02.05-.03.05-.02.05-.02.05-.02.05-.02.04-.02.06-.02.05-.01.05-.02.05-.03.1-.03.1-.02.05-.01.05-.01.06-.02.05-.02.1-.02.1v.06l-.01.05-.01.05v.05l-.01.06-.01.05v.1l-.01.06v.05l-.01.1v.43l.02.1v.11l.01.05.01.05.01.06v.05l.02.05v.05l.02.05.02.1.01.06.03.1.01.05.02.06.01.05.04.1.05.15.02.05.02.05.02.05.02.05.02.04.02.05.03.05.05.1.05.1.02.04.03.05.03.05.02.04.03.05.03.04.03.05.03.05.03.04.04.05.03.04.03.04.07.1.03.04.04.04.04.04.03.04.04.05.08.08.04.04.04.04.04.04.04.04.04.04.05.04.13.11.13.11.05.04.05.03.04.03.05.04.1.06.04.03.05.03.1.06.04.03.05.02.05.03.05.03.05.02.05.03.05.02.05.03.05.02.05.02.05.02.05.02.05.02.06.02.05.02.05.02.05.02.05.02.06.01.05.02.05.01.1.03.06.02h.05l.11.03.06.01.05.01.05.01.06.01h.05l.06.02h.05l.06.01h.05l.06.01h.1l.06.01H171.41l.06-.01h.05l.06-.01.05-.01h.06l.05-.01.05-.01.06-.01.1-.02.06-.01.05-.01.06-.02.05-.01.1-.03.11-.03.05-.01.06-.02.05-.02.05-.02.05-.01.05-.02.1-.04.06-.02.1-.05.05-.02.05-.03.05-.02.1-.05.04-.03.05-.02.05-.03.05-.03.05-.03.04-.02.1-.06.04-.04.1-.06.08-.07.05-.03.09-.07.04-.04.09-.07.04-.04.04-.04.04-.03.05-.04.04-.04.04-.05.08-.08.04-.04.04-.05.03-.04.04-.04.04-.05.03-.04.04-.05.03-.04.04-.05.03-.04.03-.05.03-.04.03-.05.03-.05.03-.04.03-.05.03-.05.03-.04.03-.05.05-.1.02-.05.03-.04.02-.05.02-.05.03-.05.02-.05.02-.05.04-.1.02-.05.02-.05.01-.05.02-.05.03-.1.03-.1.02-.06.02-.1.02-.05v-.05l.02-.06V121l.02-.05v-.05l.01-.05.01-.06v-.05l.01-.05.01-.05v-.06l.01-.05v-.05-.06l.01-.1V119.9l-.01-.06v-.05l-.01-.05v-.05l-.01-.06-.01-.05v-.05l-.02-.05v-.06l-.02-.05v-.05l-.03-.1-.01-.06-.03-.1-.01-.05-.02-.05-.01-.05-.02-.05-.02-.05-.03-.1-.02-.05-.02-.05-.02-.05-.02-.05-.02-.05-.02-.05-.02-.05-.03-.05-.05-.1-.05-.09-.02-.05-.03-.04-.03-.05-.02-.05-.03-.04-.03-.05-.03-.05-.03-.04-.03-.05-.04-.04-.03-.05-.03-.04-.07-.09-.03-.04-.04-.04-.04-.05-.03-.04-.04-.04-.04-.04-.04-.04-.04-.05-.04-.04-.08-.08-.04-.04-.05-.04-.13-.11-.04-.04-.05-.03-.04-.04-.05-.03-.04-.04-.05-.03-.05-.03-.04-.03-.1-.07-.05-.03-.1-.05-.04-.03-.05-.03-.05-.03-.05-.02-.05-.03-.05-.02-.1-.05-.05-.02-.05-.03-.05-.02-.05-.02-.05-.02-.05-.02-.06-.02-.05-.02-.05-.01-.1-.04-.06-.01-.05-.02-.1-.03-.06-.01-.05-.01-.06-.02-.1-.02h-.06l-.05-.02h-.06l-.05-.02h-.06l-.05-.01h-.05l-.06-.01h-.05l-.06-.01h-.11l-.1-.01h-.06-.11zM110.55 242.73l-8.46-4.1-3.29 6.58 8.46 4.09 3.29-6.57z" fill="#757778" fill-rule="evenodd"/><path d="M110.55 242.73l-8.46-4.1-3.29 6.58 8.46 4.09 3.29-6.57z" fill="none" stroke="#757778" stroke-linecap="square" stroke-miterlimit="1.5" stroke-width="1.19" vector-effect="non-scaling-stroke"/><g fill="#757778" fill-rule="evenodd"><path d="M8.3 95.23h.1l.1.01h.11l.1.01h.1l.11.02h.1l.1.02h.1l.21.04.1.01.1.02.1.02.1.02.2.04.1.02.1.03.1.02.1.03.1.03.09.03.1.03.09.03.1.03.09.03.1.04.09.03.09.04.09.04.1.04.08.04.1.04.08.04.1.04.08.05.09.04.09.05.08.04.09.05.08.05.09.05.08.05.09.05.08.06.08.05.08.05.16.12.16.11.08.06.15.12.15.13.07.06.08.07.07.06.07.07.07.06.07.07.07.07.07.07.07.07.06.07.07.07.06.08.13.15.06.07.06.08.07.07.05.08.06.08.06.08.06.08.05.08.06.08.05.08.05.08.06.08.05.09.1.17.05.08.04.09.05.09.04.08.05.1.04.08.04.1.04.08.04.1.04.08.04.1.03.09.04.09.03.1.04.09.03.1.03.09.03.1.03.09.03.1.02.1.03.09.02.1.02.1.02.1.02.1.04.2.02.1.01.1.02.1.02.2.01.1.02.21v.2l.01.11v.62l-.01.1-.02.21-.01.1-.02.21-.02.1-.01.1-.02.1-.03.2-.03.1-.02.1-.02.1-.02.1-.03.1-.02.1-.03.09-.03.1-.03.09-.03.1-.03.09-.03.1-.04.09-.03.1-.04.08-.04.1-.04.09-.04.09-.04.09-.04.09-.04.08-.05.1-.04.08-.05.09-.04.08-.05.09-.1.17-.05.08-.05.09-.06.08-.05.08-.06.08-.05.08-.06.08-.06.08-.06.08-.05.07-.07.08-.06.08-.06.07-.06.08-.07.07-.06.07-.07.08-.06.07-.07.07-.07.07-.07.06-.07.07-.07.07-.07.07-.07.06-.08.07-.07.06-.07.06-.08.06-.15.13-.08.06-.16.11-.16.11-.08.06-.16.1-.09.06-.08.05-.09.05-.08.05-.09.04-.08.05-.1.05-.08.04-.09.05-.09.04-.18.08-.09.04-.1.04-.08.04-.1.03-.09.04-.1.03-.09.04-.1.03-.09.03-.1.03-.19.06-.1.02-.1.03-.09.02-.1.03-.1.02-.1.02-.2.04-.1.01-.1.02-.2.03-.1.01-.1.01-.21.02h-.1l-.11.01h-.1l-.1.01h-.63l-.11-.01-.1-.01h-.1l-.11-.02h-.1l-.1-.02-.1-.02h-.1l-.11-.03-.1-.01-.2-.04-.1-.02-.1-.02-.1-.03-.1-.02-.1-.03-.1-.02-.09-.03-.1-.03-.1-.03-.09-.03-.1-.03-.08-.04-.1-.03-.18-.07-.1-.04-.09-.04-.09-.04-.09-.04-.09-.04-.09-.04-.09-.05-.09-.04-.08-.05-.09-.05-.09-.04-.08-.05-.09-.05-.08-.05-.08-.06-.09-.05-.08-.05-.08-.06-.08-.05-.08-.06-.08-.06-.08-.05-.07-.06-.08-.06-.08-.07-.07-.06-.08-.06-.07-.06-.07-.07-.08-.06-.07-.07-.07-.07-.07-.07-.07-.06-.07-.07-.06-.07-.07-.07-.07-.08-.06-.07-.07-.07-.06-.08-.06-.07-.06-.08-.06-.08-.06-.07-.06-.08-.06-.08-.06-.08-.05-.08-.06-.08-.05-.08-.05-.08-.06-.09-.05-.08-.05-.09-.05-.08-.04-.09-.05-.08L.9 107l-.04-.09-.05-.09-.04-.08-.04-.1-.04-.08-.04-.1-.04-.09-.04-.09-.03-.09-.04-.1-.03-.09-.04-.09-.03-.1-.03-.09-.03-.1-.03-.1-.02-.09-.03-.1-.02-.1-.03-.1-.02-.09-.02-.1-.02-.1-.02-.1-.02-.1-.02-.1-.01-.1-.01-.1-.02-.1v-.1l-.02-.1v-.1l-.01-.11v-.1l-.01-.1V103.42l-.01-.11V103l.01-.1v-.11l.01-.1.01-.1.01-.1.01-.11.02-.1.01-.1.01-.1.02-.1.02-.1.02-.1.02-.1.02-.1.02-.1.03-.1.02-.1.03-.1.02-.1.03-.09.03-.1.03-.09.03-.1.04-.09.03-.09.04-.1.03-.09.04-.09.04-.09.04-.09.04-.09.04-.09.04-.09.05-.09.04-.08.05-.09.05-.09.04-.08.05-.09.05-.08.05-.08.06-.09.05-.08.05-.08.06-.08.05-.08.06-.08.06-.08.06-.08.06-.08.06-.07.06-.08.06-.07.06-.08.07-.07.06-.08.07-.07.07-.07.06-.07.07-.07.07-.07.07-.07.07-.06.07-.07.08-.06.07-.07.07-.06.15-.13.08-.06.08-.06.07-.06.08-.06.08-.05.08-.06.08-.06.08-.05.08-.05.17-.1.08-.06.09-.05.08-.05.1-.05.08-.04.08-.05.1-.04.08-.05.1-.04.08-.04.1-.04.17-.08.1-.04.18-.07.19-.07.1-.03.09-.03.1-.03.1-.03.09-.03.1-.03.1-.02.1-.03.09-.02.1-.02.1-.02.1-.02.1-.02.1-.02.1-.01.1-.02.1-.01.1-.01.1-.01.11-.01.1-.01h.1l.11-.01h.1l.11-.01H8.3zm-.17 3.68H7.96l-.06.01h-.06l-.06.01h-.05l-.06.01H7.6l-.06.02H7.5l-.06.01-.11.02-.11.03h-.06l-.05.02-.05.01-.06.02-.05.01-.06.02-.05.01-.1.04-.1.03-.06.02-.05.02-.05.02-.05.02-.05.02-.05.03-.1.04-.05.03-.05.02-.05.03-.05.02-.05.03-.04.02-.05.03-.05.03-.04.03-.1.05-.09.06-.04.03-.05.04-.04.03-.04.03-.04.03-.05.04-.08.06-.04.04-.04.03-.04.04-.04.03-.12.12-.08.07-.03.04-.04.04-.07.08-.04.04-.03.04-.03.04-.04.04-.03.05-.03.04-.04.04-.03.04-.03.05-.03.04-.03.04-.03.05-.03.04-.05.1-.03.04-.03.05-.02.04-.03.05-.02.05-.03.04-.02.05-.03.05-.02.05-.02.05-.02.05-.02.05-.04.1-.02.05-.02.05-.02.05-.03.1-.02.05-.01.05-.04.16-.02.05-.01.05-.02.1-.01.06-.02.11v.06l-.02.05-.01.17v.05l-.01.06v.05l-.01.12V103.6l.01.06v.05l.02.17.01.05.01.06.02.1v.06l.02.05.01.06.01.05.02.05.04.16.01.05.02.05.03.1.02.05.02.05.02.05.02.05.02.05.02.05.02.05.02.05.02.05.03.05.02.04.03.05.02.05.03.05.02.04.03.05.03.04.05.1.03.04.03.04.03.05.03.04.03.05.03.04.04.04.03.04.03.05.04.04.03.04.03.04.04.04.07.08.04.04.03.04.08.07.12.11.04.04.04.04.08.07.08.06.05.04.04.03.04.03.04.03.05.03.04.04.1.06.09.05.04.03.1.06.04.02.05.03.05.02.05.03.1.05.1.04.05.02.05.03.05.02.05.02.05.02.05.02.1.03.11.04.05.01.06.02.05.01.06.02h.05l.05.02.06.01.11.03.11.02h.06l.05.01h.06l.06.02h.11l.06.01h.12l.05.01h.53l.06-.01h.06l.05-.01.06-.01h.06l.05-.02h.06l.06-.01.05-.01.06-.02h.05l.06-.02.05-.01.06-.01.05-.02.05-.01.06-.02.05-.01.1-.04.11-.03.05-.02.1-.04.1-.05.06-.02.05-.02.05-.02.05-.03.04-.02.05-.03.05-.02.05-.03.05-.02.1-.06.04-.03.09-.05.09-.06.09-.07.04-.03.04-.03.09-.07.08-.06.04-.04.04-.03.05-.04.04-.04.11-.1.04-.04.04-.04.07-.08.07-.08.04-.04.03-.04.04-.04.03-.04.03-.05.04-.04.06-.08.03-.05.03-.04.03-.05.03-.04.03-.05.06-.09.02-.04.03-.05.03-.04.05-.1.02-.05.02-.04.03-.05.02-.05.02-.05.02-.05.02-.05.03-.05.01-.05.02-.05.02-.05.02-.05.02-.05.03-.1.03-.1.01-.06.02-.05.01-.05.02-.1.01-.06.01-.05.02-.11.01-.06v-.05l.01-.06.01-.05v-.06l.01-.05v-.06-.05l.01-.06V103.15v-.06-.11l-.01-.05v-.06l-.02-.05v-.11l-.02-.06-.02-.1v-.06l-.02-.05-.02-.11-.01-.05-.02-.05-.01-.06-.03-.1-.03-.1-.02-.05-.02-.05-.02-.05-.02-.05-.01-.05-.03-.05-.02-.05-.02-.05-.02-.05-.02-.05-.03-.05-.02-.05-.02-.04-.05-.1-.03-.04-.03-.05-.02-.05-.06-.09-.03-.04-.03-.05-.03-.04-.03-.04-.03-.05-.06-.08-.04-.04-.03-.05-.03-.04-.04-.04-.03-.04-.04-.04-.07-.08-.07-.08-.04-.04-.04-.03-.11-.12-.04-.03-.04-.04-.05-.03-.04-.04-.04-.03-.04-.03-.09-.07-.08-.06-.05-.04-.04-.03-.1-.06-.08-.05-.05-.03-.05-.03-.04-.03-.1-.05-.05-.02-.05-.03-.04-.02-.05-.03-.05-.02-.05-.02-.05-.03-.1-.04-.1-.04-.06-.02-.1-.03-.1-.04-.06-.01-.06-.02-.05-.01-.05-.02-.06-.01-.05-.01-.06-.02h-.05l-.06-.02H9l-.06-.02h-.06l-.05-.01-.06-.01h-.06l-.05-.01H8.6l-.06-.01h-.06l-.11-.01h-.24zM225.05 274.93h10.05v3.7h-11.24l-11.6-8.32h-36.72v-3.7h37.91l11.6 8.32z"/><path d="M242.67 273.12h-9.43v7.32h9.43v-7.32z"/></g><path d="M242.67 273.12h-9.43v7.32h9.43v-7.32z" fill="none" stroke="#757778" stroke-linecap="square" stroke-miterlimit="1.5" stroke-width="1.2" vector-effect="non-scaling-stroke"/><path d="M407.52 253.25h-9.43v7.32h9.43v-7.32z" fill="#757778" fill-rule="evenodd"/><path d="M407.52 253.25h-9.43v7.32h9.43v-7.32z" fill="none" stroke="#757778" stroke-linecap="square" stroke-miterlimit="1.5" stroke-width="1.2" vector-effect="non-scaling-stroke"/><path d="M442.97 202.36v-9.27h-7.45v9.27h7.45z" fill="#757778" fill-rule="evenodd"/><path d="M442.97 202.36v-9.27h-7.45v9.27h7.45z" fill="none" stroke="#757778" stroke-linecap="square" stroke-miterlimit="1.5" stroke-width="1.21" vector-effect="non-scaling-stroke"/><g fill="#757778" fill-rule="evenodd"><path d="M171.15 260.37h.31l.1.02h.11l.1.01.1.01.1.01.11.01.1.02.1.01.1.02.1.01.2.04.1.02.1.03.1.02.1.02.1.03.1.02.1.03.1.03.09.03.1.03.09.03.1.04.09.03.09.04.09.03.1.04.08.04.1.04.09.04.09.04.08.05.1.04.08.04.09.05.09.05.08.05.09.04.08.05.09.06.08.05.08.05.08.05.08.06.09.05.07.06.08.06.08.06.08.06.08.06.07.06.08.06.07.06.08.07.07.06.07.07.07.06.08.07.07.07.06.07.07.07.07.07.07.07.06.07.07.07.06.08.06.07.07.07.06.08.06.08.06.07.06.08.05.08.06.08.06.08.05.08.06.08.05.09.05.08.05.08.05.09.05.08.05.09.05.08.04.1.05.08.04.09.04.09.05.09.04.09.04.09.04.09.03.09.04.1.03.09.04.09.03.1.03.09.03.1.03.09.03.1.03.09.03.1.02.1.02.1.05.19.02.1.02.1.01.1.02.1.02.1v.1l.02.1.01.1.01.1.02.21V268.14l.01.1v.62l-.01.11v.1l-.02.1v.11l-.02.1-.01.1-.01.1-.02.1-.02.1-.01.1-.02.1-.02.1-.05.2-.02.1-.02.1-.03.1-.03.1-.03.09-.03.1-.03.09-.03.1-.03.09-.04.1-.03.09-.04.09-.03.09-.04.09-.04.1-.04.08-.05.09-.04.09-.04.09-.05.08-.04.1-.05.08-.05.08-.05.09-.05.08-.05.09-.05.08-.05.08-.06.08-.05.09-.06.08-.06.07-.05.08-.06.08-.06.08-.06.08-.06.07-.07.08-.06.07-.06.07-.07.08-.06.07-.07.07-.07.07-.07.07-.06.07-.07.07-.08.06-.07.07-.07.07-.07.06-.08.06-.15.13-.07.06-.08.06-.08.06-.08.06-.08.06-.07.05-.09.06-.08.05-.08.06-.08.05-.08.05-.09.05-.08.05-.09.05-.08.05-.1.05-.08.04-.09.05-.09.04-.08.04-.1.05-.08.04-.1.04-.09.03-.09.04-.1.04-.09.03-.18.07-.1.03-.1.04-.09.03-.1.02-.1.03-.09.03-.1.02-.1.03-.1.02-.1.02-.1.02-.1.02-.1.02-.1.02-.1.01-.2.03-.1.01-.1.02h-.1l-.11.01-.1.01h-.1l-.11.01h-.83l-.11-.02h-.1l-.1-.01-.11-.02h-.1l-.2-.04-.1-.01-.1-.02-.1-.02-.1-.02-.1-.02-.1-.02-.2-.05-.1-.02-.2-.06-.1-.02-.09-.03-.1-.04-.09-.03-.1-.03-.09-.04-.09-.03-.1-.04-.08-.04-.1-.03-.09-.04-.09-.04-.09-.05-.09-.04-.08-.04-.1-.05-.08-.04-.09-.05-.08-.05-.09-.05-.08-.05-.09-.05-.16-.1-.08-.06-.09-.05-.16-.11-.15-.12-.08-.06-.08-.06-.07-.06-.15-.12-.08-.07-.07-.06-.07-.07-.08-.07-.07-.06-.07-.07-.06-.07-.07-.07-.07-.07-.07-.07-.06-.07-.07-.08-.06-.07-.07-.07-.06-.08-.06-.07-.06-.08-.06-.08-.06-.08-.06-.08-.05-.07-.06-.09-.1-.16-.06-.08-.05-.08-.05-.09-.05-.08-.05-.09-.05-.08-.05-.09-.04-.08-.05-.1-.04-.08-.05-.09-.04-.09-.04-.09-.04-.09-.04-.1-.03-.08-.04-.1-.04-.09-.03-.1-.03-.09-.03-.1-.04-.08-.05-.2-.03-.1-.03-.1-.02-.09-.03-.1-.02-.1-.02-.1-.02-.1-.04-.2-.01-.1-.02-.1-.01-.1-.01-.1-.01-.1-.01-.1-.02-.2v-.11l-.01-.1v-.73l.01-.1.02-.21v-.1l.02-.1.01-.1.01-.1.02-.11.01-.1.04-.2.02-.1.02-.1.02-.1.03-.1.02-.1.03-.09.03-.1.03-.1.02-.09.04-.1.03-.09.03-.1.03-.09.04-.09.04-.1.03-.08.04-.1.04-.08.04-.1.04-.08.05-.1.04-.08.05-.09.04-.09.05-.08.05-.09.05-.08.05-.09.05-.08.05-.08.05-.09.11-.16.06-.08.05-.08.06-.08.06-.08.06-.07.06-.08.06-.08.06-.07.13-.15.07-.07.06-.07.07-.07.07-.07.07-.07.06-.07.14-.14.08-.06.07-.07.07-.06.08-.07.07-.06.08-.06.07-.06.08-.06.08-.06.07-.06.08-.06.16-.11.09-.06.08-.05.08-.05.08-.05.09-.06.08-.05.09-.04.08-.05.1-.05.08-.05.09-.04.08-.04.1-.05.17-.08.1-.04.09-.04.09-.04.1-.03.08-.04.1-.03.1-.04.09-.03.1-.03.09-.03.1-.03.1-.03.09-.02.1-.03.1-.02.1-.03.1-.02.1-.02.2-.04.1-.01.1-.02.2-.03h.1l.1-.02.2-.02h.11l.1-.01H170.84l.11-.01H171.15zm-.17 3.68H170.76l-.06.01h-.05l-.06.01h-.06l-.06.01-.05.01h-.06l-.05.02h-.06l-.06.02h-.05l-.06.02-.05.01-.06.01-.05.02-.06.01-.05.02-.05.01-.06.02-.1.03-.1.04-.06.02-.1.04-.1.04-.05.02-.05.02-.05.03-.05.02-.05.02-.1.05-.04.03-.05.03-.1.05-.04.03-.1.06-.08.06-.05.03-.04.03-.05.03-.04.03-.04.04-.04.03-.09.07-.08.07-.04.03-.04.04-.12.1-.04.05-.03.04-.08.07-.07.08-.03.04-.04.04-.03.04-.04.05-.03.04-.03.04-.07.09-.03.04-.03.04-.03.05-.03.04-.03.05-.05.09-.03.04-.03.05-.02.05-.08.14-.02.05-.02.04-.03.05-.02.05-.02.05-.02.05-.02.05-.02.05-.02.05-.02.05-.02.05-.01.05-.03.1-.02.05-.04.16-.04.16v.05l-.02.06-.02.1v.06l-.01.05v.06l-.02.05V268.17l-.01.06V268.85l.02.1.02.12v.05l.02.1.01.06.01.06.04.15.04.16.02.05.03.1.02.06.01.05.02.05.02.05.02.05.02.05.02.05.02.04.03.05.02.05.02.05.02.05.08.14.02.05.03.04.03.05.05.09.03.04.03.05.03.04.03.05.03.04.07.08.03.05.03.04.04.04.03.04.04.04.03.04.04.04.03.04.08.08.03.04.04.04.12.1.04.04.04.04.04.03.04.04.04.03.09.07.04.03.04.03.05.04.04.03.05.03.09.06.09.06.04.02.05.03.05.03.14.08.05.02.05.03.05.02.1.05.05.02.1.04.1.04.06.02.1.03.1.04.06.01.05.02.06.01.05.02.05.01.06.01.05.02h.06l.05.02h.06l.06.02h.05l.06.02h.05l.06.01h.06l.11.02H171.4l.11-.01.06-.01h.06l.05-.01.06-.01.05-.01.12-.02.1-.02.06-.02h.06l.05-.02.05-.02.06-.01.05-.02.05-.01.11-.04.1-.03.06-.02.05-.02.05-.02.05-.02.05-.02.05-.02.1-.05.05-.02.05-.03.05-.02.14-.08.05-.03.04-.03.05-.02.1-.06.08-.06.05-.03.04-.03.04-.04.05-.03.04-.03.04-.03.09-.07.04-.04.04-.03.04-.04.04-.03.04-.04.04-.04.04-.03.03-.04.04-.04.04-.04.04-.04.07-.08.03-.04.04-.04.03-.04.04-.04.03-.04.03-.05.06-.08.04-.04.03-.05.03-.04.03-.05.02-.04.03-.05.03-.04.03-.05.02-.04.03-.05.07-.14.03-.05.02-.05.02-.05.03-.05.02-.04.02-.05.02-.05.02-.05.02-.05.02-.05.01-.05.02-.06.03-.1.02-.05.04-.16.01-.05.02-.05.02-.1v-.06l.03-.1v-.06l.01-.06.02-.16.01-.17V268.23l-.01-.17-.02-.17v-.05l-.01-.06-.02-.1-.01-.06-.01-.05-.01-.05-.02-.06v-.05l-.02-.05-.03-.1-.02-.06-.03-.1-.02-.05-.01-.05-.02-.05-.02-.05-.02-.05-.02-.05-.02-.05-.02-.05-.03-.05-.02-.05-.02-.04-.03-.05-.02-.05-.05-.1-.03-.04-.02-.05-.03-.04-.03-.05-.03-.04-.03-.05-.02-.04-.03-.05-.04-.04-.03-.04-.06-.09-.03-.04-.04-.04-.03-.04-.03-.05-.04-.04-.03-.04-.07-.08-.04-.04-.04-.03-.04-.04-.03-.04-.12-.11-.04-.04-.04-.03-.08-.07-.09-.07-.04-.03-.04-.04-.05-.03-.04-.03-.04-.03-.05-.03-.09-.06-.09-.06-.05-.03-.09-.05-.05-.03-.05-.03-.04-.02-.05-.03-.1-.04-.1-.05-.05-.02-.05-.02-.05-.02-.05-.02-.05-.02-.06-.02-.1-.04-.1-.03-.06-.02-.05-.01-.06-.02-.05-.01-.06-.02h-.05l-.05-.02-.11-.02-.12-.02-.05-.01-.06-.01h-.06l-.05-.01-.06-.01h-.06l-.05-.01h-.12l-.06-.01H171zM308.58 121.58l-18.9 3.92v8.18h-3.66v-11.15l18.91-3.92v-7.81h3.65v10.78z"/><path d="M291.57 141.12v-9.27h-7.45v9.27h7.45z"/></g><path d="M291.57 141.12v-9.27h-7.45v9.27h7.45z" fill="none" stroke="#757778" stroke-linecap="square" stroke-miterlimit="1.5" stroke-width="1.21" vector-effect="non-scaling-stroke"/><g fill="#757778" fill-rule="evenodd"><path d="M306.86 96.83h.31l.1.01h.11l.1.02h.1l.11.02h.1l.1.02.1.02.1.01.1.02.1.02.1.02.2.04.1.02.2.05.2.06.1.03.09.03.1.03.09.03.1.03.09.04.09.03.1.04.08.04.1.04.09.04.09.04.09.04.08.04.1.05.08.04.09.05.09.04.08.05.09.05.08.05.09.05.08.05.08.06.08.05.09.05.16.12.15.11.08.06.08.06.15.13.07.06.08.06.07.07.07.06.08.07.07.06.07.07.06.07.07.07.07.07.07.07.06.07.07.08.06.07.06.08.07.07.06.08.06.07.06.08.06.08.06.08.05.08.06.08.05.08.06.08.05.08.05.08.05.09.05.08.05.09.05.08.05.09.04.09.05.08.04.1.09.17.04.1.04.08.04.1.03.08.04.1.04.09.03.1.03.09.03.1.04.09.05.19.03.1.03.1.02.1.03.09.02.1.02.1.02.1.02.1.02.1.01.1.02.1.01.1.01.1.01.1.01.1.01.1v.1l.02.11v.83l-.01.1v.11l-.02.1v.1l-.03.21-.01.1-.02.1-.01.1-.02.1-.02.1-.02.1-.02.1-.02.1-.03.1-.02.1-.03.1-.03.09-.05.19-.04.1-.03.09-.03.1-.03.09-.04.1-.04.08-.03.1-.04.09-.04.09-.04.09-.09.17-.04.1-.05.08-.04.09-.05.08-.05.09-.05.08-.05.09-.05.08-.05.09-.05.08-.06.08-.05.08-.06.08-.05.08-.06.08-.06.08-.06.07-.06.08-.06.08-.07.07-.06.08-.06.07-.07.07-.06.07-.07.08-.07.07-.07.07-.06.06-.07.07-.07.07-.08.07-.07.06-.07.07-.08.06-.07.06-.08.06-.07.07-.16.12-.15.11-.16.11-.09.06-.16.1-.08.06-.09.05-.08.05-.09.05-.08.04-.1.05-.08.05-.09.04-.09.05-.08.04-.18.08-.1.04-.09.04-.09.04-.1.03-.09.04-.09.03-.1.04-.09.03-.1.03-.09.03-.2.06-.09.02-.1.03-.1.02-.1.03-.1.02-.1.02-.1.02-.1.02-.1.01-.1.02-.1.01-.1.02-.1.01-.1.01-.2.02h-.11l-.1.01h-.11l-.1.01h-.63l-.1-.01-.11-.01-.2-.02h-.1l-.11-.02-.1-.02h-.1l-.1-.03-.1-.01-.2-.04-.1-.02-.1-.02-.1-.03-.1-.02-.1-.03-.1-.02-.1-.03-.1-.03-.09-.03-.19-.06-.1-.04-.09-.03-.09-.04-.1-.03-.08-.04-.1-.04-.09-.04-.09-.04-.09-.04-.09-.04-.08-.05-.1-.04-.08-.05-.09-.05-.08-.04-.09-.05-.08-.05-.09-.05-.08-.06-.08-.05-.08-.05-.08-.06-.09-.05-.08-.06-.07-.06-.08-.05-.08-.06-.08-.06-.07-.07-.08-.06-.15-.12-.14-.13-.15-.14-.07-.07-.06-.06-.07-.07-.07-.07-.07-.08-.06-.07-.07-.07-.06-.07-.06-.08-.07-.07-.06-.08-.06-.08-.06-.07-.06-.08-.05-.08-.06-.08-.06-.08-.05-.08-.06-.08-.05-.08-.05-.09-.05-.08-.05-.09-.05-.08-.05-.09-.05-.08-.04-.09-.05-.09-.04-.09-.04-.08-.05-.1-.04-.08-.04-.1-.04-.09-.03-.09-.04-.09-.03-.1-.04-.09-.03-.09-.03-.1-.03-.09-.03-.1-.03-.1-.03-.09-.03-.1-.02-.1-.05-.19-.02-.1-.02-.1-.02-.1-.01-.1-.02-.1-.02-.1-.01-.1-.01-.1-.01-.1-.01-.1-.01-.1v-.11l-.02-.1v-.83l.01-.11v-.1l.02-.1v-.1l.02-.11.01-.1.01-.1.02-.1.02-.1.01-.1.02-.1.02-.1.02-.1.03-.1.02-.1.02-.1.03-.1.03-.1.03-.09.03-.1.03-.09.03-.1.03-.09.04-.09.03-.1.04-.09.03-.09.04-.09.04-.09.04-.09.05-.09.04-.09.04-.09.05-.08.04-.09.05-.09.05-.08.05-.09.05-.08.05-.09.05-.08.05-.08.06-.08.05-.08.06-.08.06-.08.05-.08.06-.08.06-.08.06-.07.06-.08.07-.08.06-.07.06-.07.07-.08.06-.07.07-.07.07-.07.07-.07.06-.07.07-.07.08-.06.07-.07.14-.13.08-.06.07-.07.08-.06.07-.06.08-.06.08-.06.08-.06.07-.05.08-.06.09-.06.08-.05.08-.06.16-.1.09-.05.08-.05.09-.05.08-.05.1-.04.08-.05.09-.05.09-.04.08-.04.1-.04.08-.05.19-.07.09-.04.18-.07.2-.07.09-.03.1-.03.09-.03.1-.03.19-.06.2-.05.1-.02.1-.02.1-.02.1-.02.1-.02.1-.02.1-.01.1-.02.1-.01.1-.01.1-.01.1-.01.1-.01h.11l.1-.02h.53zm-.16 3.67h-.12l-.12.01-.11.01-.12.01h-.05l-.06.02h-.06l-.05.01-.12.02-.05.01-.11.03-.06.01-.05.01-.05.02-.06.01-.05.02-.05.01-.06.02-.05.02-.05.02-.05.01-.06.02-.05.02-.05.02-.05.02-.05.02-.05.03-.1.04-.05.03-.05.02-.05.02-.04.03-.05.03-.05.02-.05.03-.04.03-.05.03-.1.05-.08.06-.05.03-.04.04-.04.03-.05.03-.04.03-.08.07-.05.03-.04.04-.04.03-.08.07-.04.04-.04.04-.04.04-.07.07-.04.04-.03.04-.04.04-.07.08-.04.04-.03.04-.03.04-.04.04-.03.05-.03.04-.03.04-.03.05-.04.04-.03.04-.02.05-.03.04-.03.05-.03.04-.03.05-.02.05-.03.04-.03.05-.02.05-.02.04-.03.05-.02.05-.02.05-.03.05-.02.05-.02.05-.04.1-.02.05-.02.05-.01.05-.04.1-.01.05-.03.1-.02.06-.01.05-.01.05-.02.05-.02.1-.02.12-.01.1-.01.06v.06l-.01.05-.01.06v.11l-.01.05V105.25l.01.05v.06l.01.05v.06l.02.05v.06l.01.05.01.06.01.05.01.05.01.06.02.05v.05l.02.05.02.06.03.1.01.05.04.1.01.05.02.05.02.05.04.1.02.05.02.05.03.05.02.05.02.05.03.04.02.05.02.05.03.05.03.04.02.05.03.04.06.1.03.04.02.04.03.05.04.04.03.05.03.04.03.04.03.04.04.05.03.04.03.04.04.04.07.08.04.04.03.04.04.04.04.04.03.03.04.04.04.04.04.03.04.04.04.04.08.07.09.06.04.04.04.03.05.03.04.03.04.03.05.04.09.06.09.05.05.03.14.08.05.03.04.02.05.03.1.05.05.02.05.02.05.02.05.03.05.02.05.02.05.02.06.02.05.01.05.02.05.02.06.02.05.01.05.02.16.04.06.01.05.01.11.03.12.02h.05l.06.01h.05l.06.02h.12l.05.01h.12l.06.01h.53l.05-.01h.06l.06-.01.06-.01h.05l.06-.02h.06l.05-.01.06-.01.05-.02h.06l.05-.02.06-.01.16-.04.05-.02.06-.01.1-.04.1-.03.06-.02.1-.04.1-.05.05-.02.05-.02.05-.02.1-.05.05-.03.05-.02.04-.03.05-.02.05-.03.04-.03.05-.03.05-.03.04-.02.05-.03.04-.03.1-.07.04-.03.04-.03.08-.07.05-.03.04-.03.04-.04.04-.03.04-.04.04-.04.04-.03.04-.04.04-.04.03-.03.04-.04.04-.04.04-.04.07-.08.03-.04.07-.08.04-.04.03-.05.03-.04.07-.08.03-.05.03-.04.03-.05.03-.04.02-.05.03-.04.03-.05.03-.04.02-.05.03-.04.03-.05.02-.05.03-.05.02-.04.02-.05.03-.05.02-.05.02-.05.02-.05.02-.05.02-.05.02-.05.02-.05.01-.05.02-.05.03-.1.03-.1.02-.06.01-.05.01-.05.03-.1v-.06l.02-.05v-.06l.02-.05v-.06l.01-.05v-.06l.02-.05V105.19l.01-.05V104.68v-.11l-.01-.05v-.06l-.01-.05-.01-.11-.01-.06-.01-.05-.02-.11-.01-.05-.03-.11v-.05l-.02-.05-.02-.06-.03-.1-.03-.1-.02-.05-.01-.05-.02-.05-.02-.05-.02-.05-.02-.05-.02-.05-.02-.05-.02-.05-.03-.05-.02-.05-.02-.05-.03-.04-.02-.05-.03-.05-.03-.04-.02-.05-.03-.05-.03-.04-.03-.05-.02-.04-.03-.05-.03-.04-.03-.04-.03-.05-.04-.04-.03-.04-.03-.04-.03-.05-.1-.12-.04-.04-.07-.08-.08-.08-.03-.04-.04-.03-.04-.04-.08-.08-.04-.03-.04-.04-.04-.03-.04-.04-.04-.03-.05-.03-.08-.07-.04-.03-.05-.03-.09-.07-.09-.06-.09-.05-.05-.03-.04-.03-.05-.03-.05-.02-.1-.06-.04-.02-.05-.02-.1-.05-.05-.02-.05-.03-.1-.04-.1-.04-.05-.02-.1-.03-.11-.04-.06-.01-.1-.03-.06-.02-.1-.02-.06-.02h-.06l-.05-.02h-.06l-.05-.02h-.06l-.06-.01-.05-.01h-.06l-.12-.02h-.11l-.12-.01H306.7zM441.08 209.05l16.98 16.3h17.6v3.68h-19.08l-19.18-18.41v-20.96h3.68v19.39zM471.69 248.34h-18.78l-26.86 10.41h-29.79v-3.68h29.1l26.86-10.4h19.47v3.67zM424.88 273.97h-9.43v7.32h9.43v-7.32z"/></g><path d="M424.88 273.97h-9.43v7.32h9.43v-7.32z" fill="none" stroke="#757778" stroke-linecap="square" stroke-miterlimit="1.5" stroke-width="1.2" vector-effect="non-scaling-stroke"/><g fill="#757778" fill-rule="evenodd"><path d="M478.74 271.63h-19.32l-20.06 7.84h-25.75v-3.67h25.06l20.05-7.85h20.02v3.68z"/><path d="M483.36 261.71h.2l.22.01.1.01.2.02.11.01.2.03.2.03.2.03.1.02.1.02.1.02.1.03.1.02.1.03.1.02.1.03.1.03.09.03.1.03.09.03.1.04.09.03.09.04.1.03.08.04.1.04.09.04.09.04.09.04.08.04.1.05.08.04.09.05.09.05.08.04.09.05.08.05.09.05.08.06.08.05.08.05.08.06.09.05.08.06.07.06.08.06.08.06.08.06.07.06.08.06.07.06.08.07.07.06.07.07.07.06.08.07.07.07.06.07.07.06.07.07.07.08.06.07.07.07.06.07.06.08.07.07.06.08.06.08.06.07.06.08.05.08.06.08.06.08.05.08.06.08.05.09.05.08.05.08.05.09.05.08.05.09.05.08.04.1.05.08.04.09.04.09.05.09.04.09.04.09.03.09.04.09.04.1.07.18.03.1.03.09.03.1.03.09.03.1.03.09.03.1.02.1.05.2.02.09.02.1.02.1.01.1.02.1.02.1.01.1.01.1.01.1.01.1.01.11v.1l.01.1.01.11v.72l-.01.11v.1l-.02.1v.11l-.02.1-.01.1-.01.1-.02.1-.02.1-.01.1-.02.1-.02.1-.02.1-.03.1-.02.1-.02.1-.03.1-.03.1-.03.09-.03.1-.03.09-.03.1-.03.09-.07.18-.04.1-.04.09-.03.09-.04.1-.04.08-.05.1-.04.08-.04.09-.05.08-.04.1-.05.08-.05.08-.05.09-.05.08-.05.09-.05.08-.05.08-.06.08-.05.09-.06.08-.06.08-.11.15-.06.08-.06.08-.06.07-.07.08-.06.07-.06.07-.07.08-.06.07-.07.07-.07.07-.07.07-.06.07-.07.07-.08.06-.07.07-.07.07-.07.06-.08.06-.07.07-.08.06-.07.06-.08.06-.16.12-.08.06-.08.05-.16.11-.08.06-.08.05-.09.05-.08.05-.08.05-.09.05-.09.05-.08.05-.09.04-.09.05-.09.04-.09.04-.08.05-.1.04-.09.04-.18.07-.19.07-.18.07-.1.03-.1.04-.09.03-.1.02-.1.03-.09.03-.1.02-.1.03-.1.02-.1.02-.1.02-.1.02-.1.02-.1.02-.1.01-.1.02-.1.01-.1.01-.1.02h-.1l-.1.01-.11.01h-.1l-.11.01h-.83l-.11-.02h-.1l-.1-.01-.11-.02h-.1l-.1-.02-.1-.02-.1-.01-.1-.02-.1-.02-.1-.02-.1-.02-.1-.02-.1-.02-.1-.03-.1-.02-.1-.03-.1-.03-.1-.02-.09-.03-.1-.04-.09-.03-.1-.03-.08-.04-.1-.03-.1-.04-.18-.07-.09-.04-.09-.04-.09-.05-.08-.04-.1-.04-.08-.05-.09-.04-.09-.05-.08-.05-.09-.05-.17-.1-.08-.05-.08-.05-.08-.06-.17-.1-.08-.06-.07-.06-.08-.06-.08-.06-.08-.06-.07-.06-.08-.06-.07-.07-.15-.12-.07-.07-.07-.07-.08-.06-.07-.07-.06-.07-.07-.07-.07-.07-.07-.07-.06-.07-.07-.08-.06-.07-.06-.07-.07-.08-.06-.07-.06-.08-.06-.08-.06-.08-.06-.08-.05-.07-.06-.08-.05-.09-.06-.08-.05-.08-.05-.08-.05-.09-.05-.08-.05-.09-.05-.08-.05-.09-.04-.08-.05-.1-.04-.08-.04-.09-.05-.09-.04-.09-.04-.09-.07-.18-.04-.1-.04-.09-.03-.1-.03-.09-.03-.09-.03-.1-.03-.1-.03-.09-.03-.1-.03-.09-.02-.1-.03-.1-.02-.1-.02-.1-.02-.1-.02-.1-.02-.1-.01-.1-.02-.1-.01-.1-.01-.1-.01-.1-.02-.2v-.1l-.01-.11-.01-.1v-.73l.01-.1v-.1l.02-.11v-.1l.03-.2.01-.1.02-.11.02-.1.01-.1.02-.1.02-.1.02-.1.03-.1.02-.1.02-.1.03-.09.03-.1.03-.1.03-.09.03-.1.03-.09.03-.1.03-.09.04-.09.04-.1.03-.08.04-.1.04-.08.04-.1.04-.08.05-.1.04-.08.05-.09.04-.09.05-.08.05-.09.05-.08.05-.09.05-.08.05-.08.05-.09.06-.08.05-.08.06-.08.06-.08.05-.08.06-.08.06-.07.06-.08.06-.08.07-.07.06-.08.06-.07.07-.07.06-.07.07-.08.07-.07.07-.07.06-.06.07-.07.15-.14.07-.06.07-.06.08-.07.07-.06.08-.06.07-.06.08-.06.08-.06.08-.06.07-.06.08-.06.09-.05.08-.06.08-.05.08-.05.08-.06.09-.05.08-.05.09-.05.09-.04.08-.05.09-.05.09-.04.09-.05.08-.04.1-.04.09-.04.09-.04.09-.04.09-.04.1-.03.18-.07.1-.04.09-.03.1-.03.09-.03.1-.03.1-.03.09-.02.1-.03.1-.02.1-.03.1-.02.1-.02.1-.02.1-.02.1-.01.1-.02.1-.01.2-.03.1-.01.2-.02h.11l.21-.02H483.36zm-.16 3.68h-.24l-.06.01h-.05l-.06.01h-.06l-.05.01-.06.01h-.06l-.05.02h-.06l-.06.02h-.05l-.06.02-.05.01-.06.01-.16.05-.05.01-.1.03-.06.02-.05.02-.05.02-.06.02-.05.02-.05.02-.05.02-.05.02-.05.02-.05.02-.05.03-.05.02-.05.02-.05.03-.04.02-.05.03-.05.03-.05.02-.04.03-.05.03-.05.03-.04.03-.05.03-.04.03-.1.06-.03.03-.05.03-.08.07-.05.03-.04.04-.04.03-.04.04-.04.03-.04.04-.04.03-.04.04-.04.04-.03.04-.08.07-.04.04-.03.04-.04.04-.03.04-.04.04-.03.04-.03.05-.04.04-.03.04-.03.04-.03.05-.03.04-.04.04-.03.05-.02.04-.03.05-.03.04-.03.05-.03.04-.02.05-.03.05-.03.04-.02.05-.02.05-.03.05-.02.04-.03.05-.02.05-.02.05-.02.05-.02.05-.02.05-.02.05-.02.05-.01.05-.04.1-.01.05-.02.05-.01.06-.02.05-.01.05-.01.05-.02.06v.05l-.02.05v.06l-.02.05v.05l-.02.06v.11l-.02.05V269.51l-.01.06V270.13l.01.11.01.06.01.1.01.06.01.05.02.11.02.1.02.06v.05l.02.06.02.05.01.05.02.05.01.05.02.06.02.05.01.05.02.05.02.05.02.05.02.05.02.05.02.04.02.05.03.05.02.05.02.05.03.04.02.05.03.05.03.05.02.04.03.05.03.04.03.05.02.04.03.05.03.04.03.05.04.04.03.04.03.04.03.05.03.04.1.12.04.04.04.04.03.04.08.08.03.04.04.04.04.03.04.04.04.04.04.03.04.04.04.03.04.04.04.03.05.04.04.03.04.03.04.04.05.03.04.03.05.03.04.03.05.03.04.03.05.03.05.02.04.03.05.03.05.03.1.05.04.02.05.03.05.02.05.02.05.03.05.02.05.02.1.04.05.02.1.04.06.01.05.02.1.03.12.03.05.02.05.01.06.01.05.02h.06l.05.02.06.01h.05l.06.02h.06l.05.01.06.01.12.01.17.01h.64l.06-.01.06-.01h.05l.06-.01.06-.01.05-.01.06-.01.06-.01.05-.01.11-.03h.06l.05-.02.05-.02.06-.01.05-.02.1-.03.06-.02.05-.01.1-.04.06-.02.1-.04.05-.02.1-.05.05-.02.05-.02.05-.03.05-.02.04-.03.05-.02.05-.03.05-.03.1-.05.04-.03.09-.06.04-.03.05-.03.04-.03.04-.03.05-.04.04-.03.04-.03.04-.04.05-.03.04-.04.04-.03.08-.07.04-.04.04-.04.04-.03.07-.08.04-.04.03-.04.04-.04.04-.04.03-.04.04-.04.06-.08.04-.04.03-.04.03-.05.03-.04.03-.04.04-.05.03-.04.02-.05.03-.04.03-.05.03-.04.03-.05.02-.04.03-.05.03-.05.02-.04.05-.1.02-.05.02-.05.03-.05.02-.04.02-.05.02-.05.02-.05.02-.05.03-.1.02-.05.02-.06.01-.05.02-.05.01-.05.02-.05.01-.06.01-.05.02-.05.02-.1.02-.12.01-.1.01-.06v-.05l.01-.06.01-.05v-.11l.01-.06V269.57v-.12l-.01-.05v-.06l-.01-.05v-.06l-.02-.05v-.06l-.01-.05-.01-.05-.01-.06-.02-.1-.02-.06v-.05l-.02-.05-.02-.05-.01-.06-.02-.05-.01-.05-.04-.1-.01-.05-.02-.05-.02-.05-.02-.05-.02-.05-.02-.05-.02-.05-.03-.05-.02-.05-.02-.04-.05-.1-.02-.05-.03-.04-.03-.05-.02-.05-.03-.04-.03-.05-.03-.04-.03-.05-.02-.04-.03-.05-.04-.04-.03-.04-.03-.05-.03-.04-.03-.04-.04-.04-.03-.04-.03-.05-.04-.04-.03-.04-.08-.08-.03-.04-.04-.03-.04-.04-.03-.04-.04-.04-.04-.03-.12-.11-.08-.07-.09-.07-.04-.03-.04-.04-.05-.03-.04-.03-.09-.06-.04-.03-.05-.03-.04-.03-.05-.03-.05-.03-.09-.05-.05-.03-.05-.03-.04-.02-.05-.03-.1-.04-.1-.05-.05-.02-.05-.02-.05-.02-.05-.02-.05-.02-.06-.02-.05-.02-.05-.02-.05-.02-.06-.01-.05-.02-.05-.01-.16-.05h-.06l-.05-.02-.06-.01-.05-.01-.06-.01-.06-.01-.05-.01h-.06l-.06-.02h-.05l-.06-.01h-.06l-.05-.01h-.12l-.06-.01H483.2zM558.49 264.46h.2l.11.01h.1l.21.02.21.02.2.03.1.01.1.02.1.01.1.02.1.02.1.02.1.02.1.03.1.02.2.05.1.03.1.03.09.03.1.03.09.03.1.04.09.03.09.04.1.03.18.08.09.04.09.04.09.04.09.05.08.04.1.04.08.05.09.05.08.05.09.04.08.05.09.06.08.05.08.05.08.05.09.06.08.05.16.12.07.06.08.06.08.06.07.06.08.06.07.06.08.07.07.06.07.06.08.07.07.07.07.07.13.13.07.08.07.07.06.07.07.07.06.07.07.08.06.07.06.08.06.08.06.07.06.08.06.08.05.08.06.08.05.08.06.08.05.09.05.08.1.17.05.08.05.09.05.08.04.1.05.08.04.09.05.09.04.09.04.09.04.09.04.09.03.09.04.1.04.08.03.1.03.1.03.09.04.1.05.18.03.1.03.1.02.1.03.1.02.1.02.09.02.1.04.2.01.1.02.1.01.1.01.1.01.1.01.1.02.21v.1l.01.22v.62l-.01.1v.1l-.02.1v.11l-.02.1-.01.1-.01.1-.02.1-.01.1-.04.2-.02.1-.02.1-.02.1-.03.1-.02.1-.03.1-.03.1-.05.18-.04.1-.03.1-.03.09-.03.1-.04.09-.04.09-.03.09-.04.09-.04.1-.04.08-.05.1-.04.08-.04.09-.05.09-.04.08-.05.09-.05.09-.05.08-.05.08-.05.09-.05.08-.05.08-.06.09-.05.08-.06.08-.05.08-.06.07-.06.08-.06.08-.06.08-.06.07-.06.08-.07.07-.06.08-.07.07-.06.07-.07.07-.07.07-.07.07-.06.07-.07.07-.07.06-.15.14-.07.06-.08.06-.07.07-.08.06-.07.06-.08.06-.08.06-.08.06-.07.06-.08.05-.08.06-.09.05-.08.06-.08.05-.08.05-.09.05-.08.05-.09.05-.08.05-.1.05-.08.04-.09.05-.08.04-.1.04-.08.05-.1.04-.08.04-.19.07-.1.04-.08.04-.1.03-.1.03-.09.04-.1.03-.09.03-.1.03-.1.02-.09.03-.1.03-.1.02-.1.02-.1.02-.1.02-.1.02-.1.02-.1.02-.1.02-.1.01-.1.01-.1.02h-.1l-.1.02h-.1l-.11.01h-.1l-.11.01h-.83l-.11-.02h-.1l-.1-.01-.1-.01-.11-.02-.1-.01-.1-.01-.1-.02-.1-.02-.1-.02-.2-.04-.1-.02-.1-.02-.1-.02-.1-.03-.1-.03-.1-.02-.1-.03-.09-.03-.1-.03-.09-.04-.1-.03-.08-.03-.1-.04-.1-.04-.08-.03-.1-.04-.08-.04-.1-.04-.08-.05-.1-.04-.08-.04-.1-.05-.08-.04-.09-.05-.08-.05-.17-.1-.08-.05-.09-.05-.08-.05-.08-.06-.16-.1-.08-.06-.08-.06-.16-.12-.08-.06-.07-.06-.08-.06-.07-.07-.08-.06-.07-.06-.07-.07-.07-.07-.07-.06-.07-.07-.07-.07-.07-.07-.07-.07-.07-.07-.06-.07-.07-.08-.06-.07-.06-.07-.07-.08-.06-.07-.06-.08-.06-.08-.11-.15-.06-.08-.06-.08-.05-.08-.06-.09-.05-.08-.05-.08-.05-.09-.05-.08-.05-.09-.05-.08-.05-.09-.04-.08-.05-.1-.04-.08-.04-.09-.05-.09-.04-.09-.04-.09-.04-.1-.03-.08-.04-.1-.03-.09-.04-.1-.03-.09-.03-.09-.03-.1-.03-.1-.03-.09-.03-.1-.03-.1-.02-.09-.02-.1-.03-.1-.02-.1-.02-.1-.02-.1-.03-.2-.02-.1v-.1l-.02-.1-.01-.1-.01-.1-.01-.1v-.1l-.02-.11v-.83l.01-.1v-.1l.02-.11v-.1l.02-.1.01-.1.01-.1.02-.11.03-.2.02-.1.02-.1.02-.1.03-.1.02-.1.02-.1.03-.09.03-.1.03-.1.03-.09.03-.1.03-.09.03-.1.04-.08.03-.1.04-.09.03-.1.04-.08.04-.1.04-.08.05-.1.04-.08.04-.1.05-.08.04-.09.05-.08.05-.09.05-.08.05-.09.05-.08.05-.08.05-.09.06-.08.05-.08.06-.08.06-.08.05-.08.06-.08.06-.07.06-.08.06-.07.07-.08.06-.07.06-.08.07-.07.06-.07.07-.07.07-.07.07-.07.06-.07.07-.07.08-.07.07-.06.07-.07.07-.06.08-.07.07-.06.08-.06.07-.06.08-.06.08-.06.08-.06.07-.06.08-.06.09-.05.08-.06.08-.05.08-.05.08-.05.09-.06.08-.05.09-.04.08-.05.1-.05.08-.05.09-.04.17-.09.1-.04.08-.04.1-.04.09-.04.09-.04.1-.03.08-.04.1-.03.1-.04.09-.03.1-.03.09-.03.1-.03.1-.03.09-.02.1-.03.1-.02.1-.03.1-.02.1-.02.1-.02.1-.02.1-.01.1-.02.1-.01.1-.02h.1l.1-.02h.1l.11-.02h.1l.21-.01h.1l.11-.01H558.49zm-.16 3.68h-.24l-.06.01h-.05l-.06.01h-.06l-.05.01-.06.01h-.06l-.05.02h-.06l-.06.02h-.05l-.17.04-.16.05-.1.03-.06.01-.05.02-.05.02-.16.06-.05.02-.05.02-.15.06-.05.03-.1.04-.05.03-.04.02-.05.03-.05.03-.05.02-.04.03-.1.06-.04.03-.1.06-.04.03-.04.03-.04.03-.05.03-.04.04-.04.03-.09.07-.08.07-.08.07-.04.03-.04.04-.04.04-.03.04-.04.04-.04.03-.04.04-.07.08-.03.04-.04.04-.03.04-.03.05-.04.04-.03.04-.03.04-.03.05-.04.04-.03.04-.03.05-.02.04-.03.05-.03.04-.03.05-.03.04-.02.05-.03.05-.03.04-.02.05-.02.05-.03.05-.02.04-.02.05-.03.05-.02.05-.02.05-.02.05-.02.05-.02.05-.02.05-.01.05-.02.05-.02.05-.01.05-.02.05-.03.1-.01.06-.01.05-.02.06v.05l-.02.05v.06l-.03.1-.01.11v.06l-.01.05-.01.06v.11l-.01.06v.56l.02.11v.11l.02.06v.05l.02.1.01.06.02.1.02.06v.05l.02.06.02.05.01.05.02.05.01.05.02.05.02.06.01.05.02.05.02.05.02.05.02.05.02.05.02.04.03.05.02.05.02.05.03.05.02.04.02.05.03.05.03.05.02.04.03.05.03.04.03.05.03.04.02.05.03.04.04.05.03.04.03.04.03.05.03.04.04.04.03.04.03.04.04.04.03.04.04.04.04.04.03.04.04.04.07.08.04.03.04.04.04.04.08.07.08.07.09.07.04.03.04.03.05.04.04.03.04.03.05.03.04.03.05.03.04.03.1.05.04.03.05.03.05.03.05.02.1.05.09.05.05.02.15.07.05.02.05.02.05.02.1.04.06.01.05.02.1.03.06.02.06.01.05.02.05.01.06.01.1.03.06.01.06.01h.06l.05.02h.06l.06.01.1.02H558.04l.12.01h.12l.12.01H558.62l.06-.01h.11l.06-.01.06-.01h.06l.05-.01.06-.01.06-.01.05-.01.06-.01.05-.01.11-.03h.06l.05-.02.06-.02.05-.01.05-.02.1-.03.06-.02.05-.01.1-.04.06-.02.05-.02.05-.02.05-.02.1-.05.05-.02.05-.02.05-.03.05-.02.05-.03.04-.02.05-.03.05-.03.05-.03.09-.05.04-.03.05-.03.04-.03.05-.03.04-.03.05-.03.04-.04.04-.03.04-.03.09-.07.08-.07.08-.07.04-.04.04-.04.04-.03.04-.04.03-.04.08-.08.03-.04.04-.04.03-.04.04-.04.03-.04.04-.04.03-.04.03-.05.03-.04.04-.04.03-.04.03-.05.03-.04.03-.05.03-.04.02-.05.03-.04.03-.05.03-.04.02-.05.03-.05.02-.05.03-.04.04-.1.03-.05.02-.05.02-.04.02-.05.02-.05.02-.05.02-.05.02-.05.02-.05.01-.05.02-.06.01-.05.02-.05.01-.05.02-.05.01-.06.01-.05.03-.1v-.06l.02-.05.02-.1v-.06l.01-.06v-.05l.02-.06v-.16l.01-.06V272.37v-.05V272.15l-.01-.06-.01-.05v-.06l-.01-.05-.01-.05-.01-.06-.01-.05-.01-.06-.01-.05-.01-.05-.02-.06v-.05l-.02-.05-.02-.05-.03-.1-.03-.1-.01-.06-.02-.05-.02-.05-.02-.05-.02-.05-.02-.05-.02-.05-.02-.05-.02-.05-.03-.05-.04-.1-.03-.04-.02-.05-.03-.04-.02-.05-.03-.05-.03-.04-.03-.05-.02-.04-.03-.05-.03-.04-.03-.05-.03-.04-.03-.04-.04-.05-.03-.04-.03-.04-.03-.04-.04-.05-.03-.04-.04-.04-.03-.04-.04-.04-.03-.04-.04-.04-.07-.07-.04-.04-.04-.04-.04-.04-.04-.03-.04-.04-.04-.03-.04-.04-.04-.03-.09-.07-.08-.07-.04-.03-.05-.03-.09-.06-.04-.03-.05-.03-.04-.03-.05-.03-.04-.03-.05-.03-.05-.02-.05-.03-.04-.03-.05-.02-.05-.03-.05-.02-.05-.02-.05-.03-.1-.04-.05-.02-.05-.02-.05-.02-.05-.02-.1-.04-.06-.02-.05-.02-.1-.03-.06-.01-.06-.02-.05-.01-.05-.02h-.06l-.1-.03-.06-.01-.06-.01-.05-.01-.06-.01h-.06l-.05-.02h-.06l-.06-.01h-.06l-.05-.01h-.18l-.06-.01H558.33zM521.52 245.91l.05 9.07-3.68.02-.04-7.24-11.67-8.69h-23.3v-3.67h24.52l14.12 10.51z"/><path d="M521.56 284.92h14l17.75-10.12 1.82 3.2-18.6 10.6h-18.65v-20.44h3.68v16.76z"/></g><path d="M523.09 252.74h-6.8v15.95h6.8v-15.95z" fill="#ba8e42" fill-rule="evenodd"/><path d="M484.71 223.77h-16.77v26.92h16.77v-26.92z" fill="#436482" fill-rule="evenodd"/><path d="M257.04 267.5V156.86h-16.18V138.4h55.02v18.46H279.7V267.5h16.18v18.46h-55.02V267.5h16.18zM377.22 267.5V156.86h-30.97v37.66H327.7V138.4h121.6v56.12h-18.56v-37.66h-30.86V267.5h19.53v18.46H358V267.5h19.21zM75.67 137.3L41.85 89.92l-7.3 5.03-5.65-7.9L53.5 70.09l5.64 7.9-7.58 5.23 12.9 18.08 27.96-19.29-12.9-18.08-7.54 5.2-5.64-7.9 24.58-16.97 5.65 7.9-7.35 5.08 33.82 47.38 7.35-5.07 5.64 7.9-24.58 16.97-5.65-7.9 7.54-5.2-15.28-21.4L70.1 109.2l15.27 21.4 7.58-5.23 5.64 7.9-24.58 16.96-5.64-7.9 7.3-5.04zM123.84 41.13a6.12 6.12 0 0 1-.04-4.79 6.11 6.11 0 0 1 3.57-3.5 6.44 6.44 0 0 1 4.94-.03 6.08 6.08 0 0 1 3.52 3.43c.7 1.65.7 3.28 0 4.9a6.24 6.24 0 0 1-3.5 3.44 6.31 6.31 0 0 1-5 0 6.24 6.24 0 0 1-3.49-3.45zm25.79 57.26L136 66.1l-7.82 3.19-3.65-8.66 17.73-7.23 17.27 40.97 7.82-3.2 3.65 8.67-25.55 10.42-3.65-8.67 7.82-3.19zM179.96 41.5l1.93 6.21c5.13-6.65 10.42-10.8 15.85-12.43 3.38-1.02 6.42-1.08 9.13-.17 2.7.91 4.75 2.4 6.14 4.48 1.4 2.07 2.78 5.3 4.15 9.7l7.8 25.04 8.8-2.65 2.79 8.97-19.05 5.74-10.47-33.6c-1.2-3.89-2.6-6.25-4.15-7.07a6.26 6.26 0 0 0-4.92-.47c-4.54 1.37-8.99 5.09-13.36 11.16l8.57 27.5 9.01-2.72 2.8 8.97-28.45 8.56-2.8-8.97 9.18-2.76-10.41-33.43-9.18 2.76-2.8-8.97 19.44-5.85zM233.36 39.17l-1.63-9.24 7.01-1.2-1.43-8.14 8.9-11.31 3.1 17.66 9.96-1.69 1.62 9.24-9.95 1.7 4.52 25.7c.72 4.12 1.4 6.62 2.03 7.51.64.89 1.88 1.17 3.73.86a16.13 16.13 0 0 0 5.6-2.08l1.66 9.46a24.69 24.69 0 0 1-7.87 2.8c-3.23.55-5.97.3-8.21-.77a9.17 9.17 0 0 1-4.72-4.63c-.89-2.03-1.79-5.63-2.7-10.8l-4.61-26.26-7.01 1.2zM331.47 48.4l-45.75 4.22c1.15 4.87 3.51 8.69 7.1 11.44 3.6 2.75 7.95 3.9 13.09 3.42 7.45-.69 13.07-4.18 16.86-10.48l9.83 3.22a28.3 28.3 0 0 1-10.98 11.52 36.4 36.4 0 0 1-15.07 4.82c-8.32.77-15.68-1.13-22.06-5.68s-10-11.17-10.83-19.83c-.78-8.21 1.45-15.24 6.7-21.07 5.24-5.84 11.6-9.1 19.05-9.79 7.3-.67 14.18 1.3 20.6 5.94 6.44 4.62 10.26 12.05 11.46 22.27zm-11.74-6.61c-1.11-3.69-3.42-6.9-6.93-9.65a16.75 16.75 0 0 0-12.3-3.46c-4.27.4-7.8 2.1-10.56 5.13a17.48 17.48 0 0 0-4.55 11.15l34.34-3.17zM352.1 65.35l.63-34.96-11-.19.16-9.38 19.58.34-.21 12.1a21.29 21.29 0 0 1 5.16-7.74 16.05 16.05 0 0 1 6.88-3.99c2.4-.62 5.67-.9 9.8-.83l2.83.05-.2 10.66-2.14-.04c-5.45-.1-9.54.37-12.25 1.4s-4.73 2.94-6.08 5.75-2.1 7.87-2.22 15.2l-.22 11.82 11.91.2-.17 9.38-33.63-.58.16-9.38 11.01.2zM399.34 68.44l5.9-58.16-9.66-.95.94-9.33 20.34 2L410 69.47l8.32.82-.95 9.33-28.65-2.8.95-9.34 9.66.95zM480.59 81.21l-1.63 9.25-18.46-3.14 1.13-6.46c-5.98 4.02-12.12 5.5-18.42 4.42a19.02 19.02 0 0 1-11.94-6.87 15.36 15.36 0 0 1-3.3-12.95 15.7 15.7 0 0 1 7.9-11.28c4.41-2.59 9.32-3.43 14.74-2.5 5.04.85 9.65 3.17 13.84 6.96l.92-5.25c.48-2.7.58-4.82.32-6.36s-1.25-3.07-2.95-4.56-4.1-2.5-7.18-3.02c-5.3-.9-9.5.52-12.6 4.28l-9.67-4.35c5.94-7.48 14.41-10.28 25.42-8.4 4.05.68 7.45 1.81 10.2 3.39 2.77 1.57 4.72 3.33 5.87 5.27s1.8 3.94 1.95 6c.16 2.05-.14 5.23-.9 9.53l-4.3 24.5 9.06 1.54zM462.9 67.45c-3.95-4.28-8.25-6.8-12.93-7.6-2.93-.5-5.52-.08-7.78 1.26s-3.63 3.35-4.1 6.01a8.43 8.43 0 0 0 1.5 6.68c1.43 1.97 3.62 3.2 6.6 3.7 5.1.88 10.32-.41 15.62-3.87l1.1-6.18zM518.61 48.55l-1.96 6.2c8.05-2.65 14.79-3.15 20.21-1.49 3.38 1.04 5.93 2.68 7.64 4.93a11.24 11.24 0 0 1 2.5 7.1c-.03 2.5-.74 5.92-2.13 10.3l-7.92 25.02 8.79 2.69-2.84 8.95-19.03-5.82 10.62-33.55c1.24-3.88 1.45-6.6.63-8.14a6.14 6.14 0 0 0-3.8-3.12c-4.53-1.38-10.34-.78-17.43 1.82l-8.69 27.45 9 2.76-2.83 8.95-28.4-8.7 2.83-8.95 9.16 2.8 10.57-33.38-9.16-2.8 2.84-8.96 19.4 5.94zM610.63 139.16l-4.33 8.36-18.3-9.19 3.63-7.02c-7.46 2.82-14.6 2.52-21.45-.91a26.83 26.83 0 0 1-13.38-14.76c-2.59-6.65-1.85-13.9 2.22-21.75 4.1-7.87 9.78-12.85 17.07-14.93s14.03-1.56 20.23 1.56c6.57 3.3 10.97 8.74 13.2 16.33l9.82-18.93-9.35-4.7 4.34-8.35 18.9 9.49-31.35 60.41 8.75 4.39zm-41.27-40.4c-2.74 5.28-3.32 10.1-1.76 14.45s4.46 7.6 8.68 9.71c4.09 2.05 8.5 2.38 13.2 1 4.72-1.4 8.45-4.74 11.19-10.01 2.75-5.3 3.21-10.12 1.38-14.45a18.2 18.2 0 0 0-8.78-9.51 16.17 16.17 0 0 0-13.4-.7c-4.6 1.7-8.1 4.87-10.51 9.52z"/></svg>